<svg width="948" height="1267" viewBox="0 0 948 1267" fill="none" xmlns="http://www.w3.org/2000/svg">
<g clip-path="url(#clip0_101_966)">
<rect width="948" height="1267" fill="white"/>
<g clip-path="url(#clip1_101_966)">
<rect width="961.167" height="1279.61" transform="translate(-13)" fill="white"/>
<path d="M-13 0.00012207H112.624V1278.15H-13V0.00012207Z" fill="#9F56CF"/>
<path d="M593.88 24.6142C586.305 47.4187 567.667 63.2567 548.33 64.0574C517.533 65.3365 489.331 32.5378 458.974 39.219C439.031 43.6087 423.636 64.1494 404.595 72.9197C351.974 97.169 294.316 26.059 241.27 48.6979C225.76 55.3239 212.873 69.3582 197.94 77.8708C162.812 97.9145 121.009 84.7268 87.726 60.0265C70.5727 47.2991 54.4787 31.5071 35.6028 23.7399C30.7811 21.7521 25.7071 20.3993 20.5972 19.8379V-8.7644H597.037C598.341 2.48142 597.354 14.1598 593.88 24.6234V24.6142Z" fill="#CE95EF"/>
<path d="M981.764 155.425V1053.42C959.798 1043.35 932.457 1046.19 913.14 1060.92C886.535 1081.19 871.381 1122.5 838.137 1123.45C820.602 1123.96 804.633 1111.88 787.084 1111.69C758.624 1111.38 739.379 1140.72 713.597 1152.97C684.257 1166.92 649.519 1157.33 619.811 1144.23C590.103 1131.13 560.459 1114.34 528.074 1114.15C480.146 1113.87 436.965 1150.16 389.109 1147.48C339.131 1144.68 296.709 1099.85 246.803 1103.79C201.112 1107.4 163.675 1151.54 117.984 1147.83C89.9498 1145.55 66.6712 1125.56 40.1742 1115.97C33.7953 1113.66 27.2359 1112.06 20.5972 1111.13V13.9643C25.7133 14.4102 30.7934 15.4922 35.6209 17.064C54.5195 23.2342 70.6328 35.7792 87.8068 45.8898C121.13 65.5115 162.983 75.9803 198.153 60.065C213.105 53.2954 226.007 42.154 241.535 36.8904C294.645 18.9063 352.373 75.3954 405.057 56.1319C424.121 49.1649 439.534 32.8476 459.501 29.3605C489.895 24.053 518.131 50.108 548.964 49.0918C568.325 48.4558 586.985 35.8815 594.569 17.7585C598.047 9.45365 599.036 0.169169 597.73 -8.7644H743.702C754.894 1.58012 764.527 13.6646 772.046 27.0211C779.421 40.129 785.872 55.4667 799.38 61.7465C811.929 67.5731 826.505 63.6253 840.302 63.6034C862.462 63.5741 884.363 74.7155 897.618 92.7581C909.099 108.381 914.337 128.617 928.308 141.995C940.957 154.109 959.502 158.744 976.72 156.331C978.415 156.097 980.097 155.798 981.764 155.432V155.425Z" fill="#9F56CF"/>
<path d="M280.44 1178.94C258.388 1141.63 241.667 1101.13 230.731 1058.58C219.802 1016.03 214.932 972.462 216.26 929.107C217.407 891.682 223.293 856.097 233.746 823.318C245.165 787.523 261.829 755.884 283.283 729.294C300.076 708.482 320.217 690.239 339.701 672.601C359.842 654.365 380.668 635.508 397.664 613.881L400.506 616.11C383.323 637.975 362.381 656.933 342.132 675.27C322.756 692.821 302.717 710.964 286.103 731.559C234.417 795.624 221.562 874.406 219.881 929.216C217.241 1015.13 239.856 1103.16 283.557 1177.1L280.448 1178.94H280.44Z" fill="#240C3D"/>
<path d="M672.096 1198.19L670.119 1195.17C735.562 1152.33 778.34 1073.99 779.09 995.607C779.551 947.758 765.917 896.375 737.43 838.521C696.94 756.298 637.939 682.386 566.811 624.778L569.083 621.971C640.622 679.912 699.955 754.243 740.669 836.926C769.416 895.3 783.166 947.217 782.704 995.643C782.329 1034.98 771.782 1074.71 752.219 1110.55C732.655 1146.38 704.947 1176.69 672.103 1198.2L672.096 1198.19Z" fill="#240C3D"/>
<path d="M611.955 718.269H354.865V1242.26H611.955V718.269Z" fill="#FFDFE0"/>
<path d="M690.252 726.513V726.578L617.617 779.354C615.691 778.827 613.801 778.207 611.954 777.493V783.459C594.699 776.786 581.563 755.866 576.946 737.637L390.529 736.706C385.912 754.921 372.133 776.772 354.864 783.459V777.493C348.429 779.989 341.439 781.345 334.124 781.345C303.314 781.345 278.131 757.064 276.566 726.549V726.513C277.944 699.289 298.113 677.056 324.321 672.54V671.689H634.476V671.739C664.477 672.663 688.723 696.584 690.245 726.513H690.252Z" fill="#87371B"/>
<path d="M690.325 723.525C690.325 724.52 690.296 725.523 690.253 726.504V726.569C688.673 757.076 663.497 781.343 632.68 781.343C627.465 781.343 622.415 780.643 617.618 779.345C615.692 778.818 613.802 778.198 611.955 777.484C594.7 770.811 581.441 756.037 576.824 737.808H389.996C385.379 756.023 372.134 770.797 354.865 777.484C348.43 779.98 341.44 781.336 334.125 781.336C303.315 781.336 278.132 757.054 276.567 726.54V726.504C276.516 725.516 276.495 724.52 276.495 723.525C276.495 716.383 277.786 709.494 280.145 703.103C288.527 680.387 310.637 665.721 334.782 665.721H634.484V665.772C665.481 666.717 690.325 692.21 690.325 723.525Z" fill="#FFDFE0"/>
<path d="M348.394 754.243C331.514 754.243 317.779 740.472 317.779 723.541C317.779 706.611 331.514 692.84 348.394 692.84C365.274 692.84 379.009 706.611 379.009 723.541C379.009 740.472 365.274 754.243 348.394 754.243ZM348.394 696.569C333.57 696.569 321.515 708.667 321.515 723.534C321.515 738.402 333.577 750.499 348.394 750.499C363.211 750.499 375.272 738.402 375.272 723.534C375.272 708.667 363.211 696.569 348.394 696.569Z" fill="#C67DFF"/>
<path d="M632.759 754.243C615.879 754.243 602.144 740.472 602.144 723.541C602.144 706.611 615.879 692.84 632.759 692.84C649.639 692.84 663.374 706.611 663.374 723.541C663.374 740.472 649.639 754.243 632.759 754.243ZM632.759 696.569C617.935 696.569 605.881 708.667 605.881 723.534C605.881 738.402 617.942 750.499 632.759 750.499C647.576 750.499 659.638 738.402 659.638 723.534C659.638 708.667 647.576 696.569 632.759 696.569Z" fill="#C67DFF"/>
<path d="M632.752 692.83H348.394V696.567H632.752V692.83Z" fill="#C67DFF"/>
<g opacity="0.55">
<path d="M632.752 750.507H348.393V754.243H632.752V750.507Z" fill="#C67DFF"/>
</g>
<path d="M611.955 786.536H354.865V790.28H611.955V786.536Z" fill="#C67DFF"/>
<path d="M611.963 1026.59H354.872V1030.34H611.963V1026.59Z" fill="#C67DFF"/>
<path d="M611.963 802.961H354.872V806.705H611.963V802.961Z" fill="#C67DFF"/>
<path d="M611.963 811.367H354.872V815.111H611.963V811.367Z" fill="#C67DFF"/>
<path d="M563.442 737.778H557.469C555.99 724.729 549.448 714.896 541.606 714.896C539.889 714.896 538.237 715.373 536.679 716.245C539.514 711.903 543.208 709.284 547.269 709.284C556.2 709.284 563.442 722.045 563.442 737.778Z" fill="#C67DFF"/>
<path d="M520.874 737.778H514.893C513.415 724.729 506.872 714.896 499.03 714.896C497.328 714.896 495.669 715.358 494.132 716.245C496.953 711.903 500.654 709.284 504.708 709.284C513.638 709.284 520.881 722.045 520.881 737.778H520.874Z" fill="#C67DFF"/>
<path d="M478.292 737.778H472.319C470.84 724.729 464.297 714.896 456.456 714.896C454.739 714.896 453.087 715.373 451.529 716.245C454.364 711.903 458.057 709.284 462.119 709.284C471.049 709.284 478.292 722.045 478.292 737.778Z" fill="#C67DFF"/>
<path d="M435.724 737.778H429.751C428.272 724.729 421.729 714.896 413.888 714.896C412.171 714.896 410.519 715.373 408.961 716.245C411.796 711.903 415.489 709.284 419.544 709.284C428.474 709.284 435.717 722.045 435.717 737.778H435.724Z" fill="#C67DFF"/>
<path d="M557.469 737.781H531.095C531.095 729.182 533.259 721.463 536.679 716.248C538.237 715.375 539.889 714.899 541.606 714.899C549.44 714.899 555.983 724.731 557.469 737.781Z" fill="#87371B"/>
<path d="M514.894 737.781H488.535C488.535 729.182 490.699 721.463 494.133 716.248C495.676 715.361 497.328 714.899 499.031 714.899C506.865 714.899 513.408 724.731 514.894 737.781Z" fill="#87371B"/>
<path d="M472.326 737.781H445.953C445.953 729.182 448.117 721.463 451.536 716.248C453.094 715.375 454.746 714.899 456.463 714.899C464.297 714.899 470.84 724.731 472.326 737.781Z" fill="#87371B"/>
<path d="M429.758 737.781H403.384C403.384 729.182 405.548 721.463 408.968 716.248C410.526 715.375 412.178 714.899 413.895 714.899C421.729 714.899 428.272 724.731 429.758 737.781Z" fill="#87371B"/>
<path d="M588.049 840.91V965.116C588.049 971.969 583.374 977.718 577.055 979.349C577.452 978 577.675 976.579 577.675 975.093V850.886C577.675 846.818 576.031 843.153 573.383 840.491C570.736 837.829 567.078 836.185 563.032 836.185C561.762 836.185 560.528 836.343 559.36 836.646C561.178 830.609 566.761 826.201 573.391 826.201C577.43 826.201 581.102 827.846 583.749 830.508C586.397 833.162 588.042 836.834 588.042 840.903L588.049 840.91Z" fill="#C67DFF"/>
<path d="M528.052 840.91V965.116C528.052 971.969 523.385 977.718 517.066 979.349C517.462 978 517.686 976.579 517.686 975.093V850.886C517.686 846.818 516.041 843.153 513.394 840.491C510.746 837.837 507.089 836.185 503.035 836.185C501.765 836.185 500.546 836.343 499.377 836.646C501.195 830.609 506.779 826.201 513.408 826.201C517.448 826.201 521.105 827.846 523.76 830.508C526.415 833.169 528.052 836.834 528.052 840.903V840.91Z" fill="#C67DFF"/>
<path d="M468.07 840.91V965.116C468.07 971.969 463.402 977.718 457.083 979.349C457.48 978 457.703 976.579 457.703 975.093V850.886C457.703 846.818 456.059 843.153 453.411 840.491C450.764 837.829 447.106 836.185 443.052 836.185C441.783 836.185 440.564 836.343 439.395 836.646C441.213 830.609 446.796 826.201 453.411 826.201C457.451 826.201 461.123 827.846 463.77 830.508C466.418 833.169 468.062 836.834 468.062 840.903L468.07 840.91Z" fill="#C67DFF"/>
<path d="M408.087 840.91V965.116C408.087 971.969 403.42 977.718 397.1 979.349C397.497 978 397.721 976.579 397.721 975.093V850.886C397.721 846.818 396.076 843.153 393.429 840.491C390.781 837.837 387.11 836.185 383.07 836.185C381.8 836.185 380.567 836.343 379.398 836.646C381.216 830.609 386.814 826.201 393.429 826.201C397.469 826.201 401.14 827.846 403.788 830.508C406.435 833.169 408.08 836.834 408.08 840.903L408.087 840.91Z" fill="#C67DFF"/>
<path d="M577.676 850.888V975.094C577.676 976.58 577.452 978.001 577.055 979.35C575.887 979.653 574.668 979.812 573.398 979.812C565.297 979.812 558.747 973.233 558.747 965.117V840.911C558.747 839.425 558.956 838.004 559.367 836.655C560.536 836.352 561.77 836.193 563.039 836.193C567.079 836.193 570.736 837.838 573.391 840.5C576.046 843.162 577.683 846.826 577.683 850.895L577.676 850.888Z" fill="#87371B"/>
<path d="M517.693 850.888V975.094C517.693 976.58 517.47 978.001 517.073 979.35C515.904 979.653 514.685 979.812 513.416 979.812C505.315 979.812 498.765 973.233 498.765 965.117V840.911C498.765 839.425 498.974 838.004 499.385 836.655C500.554 836.352 501.773 836.193 503.042 836.193C507.096 836.193 510.754 837.838 513.401 840.5C516.049 843.155 517.693 846.826 517.693 850.895V850.888Z" fill="#87371B"/>
<path d="M457.711 850.888V975.094C457.711 976.58 457.487 978.001 457.091 979.35H457.076C455.908 979.653 454.688 979.812 453.419 979.812C445.332 979.812 438.775 973.233 438.775 965.117V840.911C438.775 839.425 438.984 838.004 439.395 836.655C440.564 836.352 441.783 836.193 443.053 836.193C447.107 836.193 450.764 837.838 453.412 840.5C456.059 843.162 457.704 846.826 457.704 850.895L457.711 850.888Z" fill="#87371B"/>
<path d="M397.722 850.888V975.094C397.722 976.58 397.498 978.001 397.101 979.35H397.087C395.918 979.653 394.699 979.812 393.429 979.812C385.343 979.812 378.778 973.233 378.778 965.117V840.911C378.778 839.425 378.987 838.004 379.399 836.655C380.567 836.352 381.801 836.193 383.07 836.193C387.11 836.193 390.782 837.838 393.429 840.5C396.077 843.155 397.722 846.826 397.722 850.895V850.888Z" fill="#87371B"/>
<path d="M348.395 737.67C356.179 737.67 362.49 731.34 362.49 723.531C362.49 715.723 356.179 709.392 348.395 709.392C340.61 709.392 334.299 715.723 334.299 723.531C334.299 731.34 340.61 737.67 348.395 737.67Z" fill="#87371B"/>
<path d="M632.759 737.67C640.544 737.67 646.855 731.34 646.855 723.531C646.855 715.723 640.544 709.392 632.759 709.392C624.974 709.392 618.664 715.723 618.664 723.531C618.664 731.34 624.974 737.67 632.759 737.67Z" fill="#87371B"/>
<path d="M370.929 1150.8C332.631 1098.01 309.086 1037.92 302.838 977.016C296.231 912.605 309.583 847.919 340.436 794.877C372.812 739.215 424.945 696.568 483.478 677.884L484.798 682.011C427.283 700.377 376.029 742.303 344.188 797.048C313.796 849.304 300.645 913.052 307.152 976.562C313.32 1036.71 336.584 1096.07 374.442 1148.23L370.936 1150.78L370.929 1150.8Z" fill="#240C3D"/>
<path d="M654.797 446.044L556.38 412.709L663.569 94.4102L805.47 -1.40991L730.815 220.297L654.797 446.044Z" fill="#2D0F4E"/>
<path d="M576.774 544.636L573.102 521.235L556.38 412.704C564.02 410.533 570.815 408.333 577.553 407.294C578.628 407.128 579.681 406.976 580.727 406.839C593.033 405.202 603.789 405.469 613.066 407.38C614.018 407.575 614.963 407.792 615.887 408.022C625.538 410.432 633.481 414.738 639.764 420.639C640.565 421.375 641.322 422.14 642.058 422.933C647.908 429.188 652.128 436.986 654.797 446.046L590.725 526.999L576.774 544.636Z" fill="#FFDFE0"/>
<path d="M642.058 422.933C641.315 422.14 640.557 421.375 639.764 420.639C668.179 330.698 697.026 239.769 725.867 149.857C739.284 108.018 752.695 66.4015 766.062 25.211L769.95 22.5852C756.071 65.341 742.134 108.551 728.204 152.014C699.349 241.984 670.487 332.971 642.058 422.941V422.933Z" fill="#180829"/>
<path d="M615.879 408.025C614.956 407.794 614.011 407.578 613.059 407.383C640.896 317.976 671.483 220.417 703.403 120.428C710.567 98.0146 717.78 75.4861 725.059 52.8998L728.94 50.2812C721.005 74.9162 713.128 99.4862 705.337 123.905C673.741 222.892 643.472 319.462 615.894 408.025H615.879Z" fill="#180829"/>
<path d="M580.726 406.836C579.673 406.966 578.619 407.125 577.552 407.29C588.654 372.484 599.849 337.382 611.067 302.165C634.367 229.061 657.884 155.3 681.228 82.4846L685.109 79.866C661.39 153.807 637.498 228.772 613.815 303.052C602.728 337.822 591.683 372.477 580.726 406.843V406.836Z" fill="#180829"/>
<path d="M576.772 544.637L573.101 521.236C579.456 518.985 586.749 521.178 590.724 527L576.772 544.637Z" fill="#2D0F4E"/>
<path d="M981.764 -8.7557V186.631C980.096 187.066 978.415 187.423 976.719 187.701C959.499 190.572 940.95 185.056 928.299 170.641C914.326 154.72 909.087 130.64 897.605 112.048C884.347 90.5775 862.443 77.3191 840.279 77.3539C826.48 77.38 811.901 82.0866 799.35 75.1442C785.84 67.6624 779.388 49.4192 772.012 33.8206C764.492 17.935 754.857 3.55437 743.663 -8.7644H981.764V-8.7557Z" fill="#CE95EF"/>
<path d="M1015.36 158.753V206.283C989.103 221.988 958.407 231.012 925.603 231.012C844.199 231.012 775.742 175.445 755.946 100.1C726.501 122.978 685.073 137.217 639.19 137.217C585.51 137.217 537.937 117.726 508.499 87.7204C479.061 117.733 431.488 137.217 377.808 137.217C351.064 137.217 325.842 132.381 303.622 123.811C303.622 123.811 303.617 123.809 303.607 123.804C298.179 185.426 246.553 233.743 183.655 233.743C167.727 233.743 152.534 230.65 138.621 225.027C117.421 216.457 99.2163 202.018 86.0067 183.714C82.9262 184.786 79.7918 185.75 76.611 186.575C75.5147 186.853 74.4107 187.123 73.3066 187.37C64.6289 189.368 55.596 190.417 46.3083 190.417C43.5367 190.417 40.7883 190.324 38.063 190.139C36.6424 190.046 35.2371 189.923 33.832 189.776C16.9397 188.033 1.08205 182.796 -13 174.789V9.49879C-7.52622 9.9693 -2.09099 11.1109 3.07397 12.7693C23.2938 19.2794 40.5335 32.5156 58.9081 43.1832C94.561 63.886 139.339 74.9316 176.969 58.1395C192.965 50.9969 206.77 39.2417 223.384 33.688C280.206 14.713 341.97 74.3145 398.336 53.9897C418.734 46.6388 435.225 29.4225 456.587 25.7432C489.105 20.1433 519.315 47.6338 552.305 46.5617C573.019 45.8906 592.984 32.6236 601.098 13.502C604.819 4.73962 605.877 -5.0564 604.479 -14.4822H760.656C772.63 -3.56771 782.937 9.18254 790.982 23.2749C798.872 37.1051 805.774 53.2878 820.227 59.9136C833.652 66.0612 849.248 61.8959 864.009 61.8728C887.719 61.8419 911.15 73.5972 925.333 92.6338C937.616 109.117 943.221 130.468 958.167 144.584C971.701 157.365 991.543 162.255 1009.96 159.71C1011.78 159.463 1013.58 159.146 1015.36 158.761V158.753Z" fill="#B187C1"/>
<g opacity="0.25">
<path d="M640.759 933.595L638.841 935.197C629.809 935.435 620.756 934.504 611.955 932.463V938.32C604.51 936.805 597.232 934.504 590.278 931.446C589.535 931.121 588.784 930.782 588.048 930.436C584.442 928.733 580.929 926.786 577.675 924.506C574.826 922.515 572.171 920.257 569.82 917.675C564.236 911.543 560.499 903.428 560.86 895.139C561.062 890.472 562.728 885.812 565.52 882.097C567.684 879.211 570.519 876.881 573.881 875.554C573.881 879.694 575.338 883.59 577.675 887.002C580.085 890.515 583.425 893.509 587.082 895.694C587.399 895.882 587.724 896.07 588.048 896.25C595.031 900.153 603.01 901.884 610.75 903.954C611.154 904.062 611.551 904.171 611.955 904.279C619.666 906.392 627.421 909.134 633.3 914.522C638.53 919.327 641.877 926.757 640.759 933.603V933.595Z" fill="#1C0930"/>
</g>
<path d="M583.828 1140.71L579.803 1139.1C585.502 1124.82 596.142 1113.33 606.429 1102.22C616.946 1090.85 627.825 1079.11 632.896 1064.66C639.093 1047.02 636.084 1028.59 632.896 1009.06C630.775 996.066 628.582 982.634 629.347 969.426C630.357 951.99 636.488 934.908 647.561 918.655C657.386 904.228 670.927 890.94 686.71 880.228C696.572 873.534 707.169 867.741 717.412 862.143C727.187 856.798 737.293 851.272 746.664 845.01C769.502 829.746 783.576 812.347 788.503 793.295C793.791 772.83 785.308 745.598 764.236 737.677L765.759 733.623C776.507 737.663 785.156 746.514 790.112 758.546C794.736 769.771 795.681 782.835 792.695 794.384C787.494 814.496 772.814 832.747 749.066 848.617C739.529 854.987 729.336 860.563 719.482 865.952C709.326 871.506 698.829 877.249 689.134 883.82C656.225 906.154 635.486 938.255 633.661 969.685C632.925 982.418 635.074 995.604 637.159 1008.37C640.297 1027.57 643.536 1047.42 636.972 1066.1C631.597 1081.4 620.409 1093.48 609.596 1105.17C599.576 1115.99 589.217 1127.18 583.814 1140.71H583.828Z" fill="#240C3D"/>
<path d="M646.334 926.368C662.825 925.928 679.409 929.189 694.515 935.84C702.515 939.36 710.226 943.919 716.12 950.39C722.014 956.861 725.96 965.431 725.584 974.188C725.202 982.946 719.965 991.66 711.835 994.877C711.835 985.997 705.494 978.148 697.884 973.611C690.273 969.073 681.451 967.169 672.895 964.89C664.34 962.61 655.611 959.717 649.075 953.723C642.547 947.728 638.803 937.845 642.323 929.701" fill="#240C3D"/>
<path d="M642.628 932.045L640.759 933.603L638.841 935.204C629.809 935.442 620.756 934.512 611.955 932.47C605.535 930.97 599.252 928.892 593.214 926.231C591.475 925.466 589.744 924.644 588.048 923.756C584.384 921.859 580.864 919.666 577.675 917.069C575.929 915.655 574.277 914.126 572.755 912.452C567.172 906.328 563.435 898.212 563.796 889.924C563.911 887.255 564.503 884.586 565.52 882.097C567.634 876.86 571.594 872.394 576.81 870.331C576.81 872.229 577.12 874.075 577.675 875.843C579.356 881.202 583.316 885.884 588.048 889.195C588.691 889.642 589.347 890.068 590.018 890.472C596.712 894.468 604.402 896.301 611.955 898.277C612.532 898.429 613.109 898.58 613.686 898.732C621.78 900.896 630.054 903.63 636.236 909.307C642.418 914.977 645.968 924.333 642.628 932.045Z" fill="#240C3D"/>
<path d="M818.657 872.345C802.657 872.345 785.899 870.375 768.572 866.444C766.797 866.04 765.015 865.621 763.241 865.196C756.467 863.587 749.47 861.928 742.494 861.38C732.698 860.615 724.128 862.325 717.707 866.314L715.796 863.248C722.873 858.841 732.2 856.951 742.775 857.78C750.025 858.343 757.167 860.038 764.077 861.683C765.845 862.101 767.605 862.52 769.372 862.924C795.565 868.861 820.417 870.253 843.22 867.064C848.99 866.256 855.064 865.102 860.359 862.166C865.834 859.129 869.672 854.303 870.617 849.261L874.166 849.924C873.005 856.099 868.612 861.712 862.105 865.319C856.298 868.543 849.834 869.777 843.717 870.635C835.602 871.768 827.241 872.337 818.657 872.337V872.345Z" fill="#240C3D"/>
<path d="M896.255 862.758C906.008 863.783 914.708 864.028 924.425 862.693C916.987 857.326 908.677 850.928 900.187 847.487C879.288 839.025 871 846.102 870.661 848.778C870.372 851.079 880.666 861.114 896.262 862.758H896.255Z" fill="#1C0838"/>
<path d="M872.436 877.109C876.469 886.075 880.638 893.736 886.683 901.484C887.556 892.337 888.876 881.913 887.563 872.824C884.324 850.454 874.045 846.84 871.57 847.893C869.442 848.802 865.994 862.782 872.436 877.116V877.109Z" fill="#1C0838"/>
<path d="M715.139 837.092C707.017 831.581 699.457 827.26 690.252 823.855C694.299 832.1 698.627 841.666 704.506 848.713C718.97 866.041 729.61 863.711 731.168 861.511C732.503 859.621 728.124 845.9 715.132 837.092H715.139Z" fill="#FFDFE0"/>
<path d="M742.884 835.671C743.533 825.853 743.446 817.132 741.744 807.444C736.687 815.105 730.628 823.675 727.519 832.317C719.886 853.583 727.252 861.626 729.935 861.864C732.236 862.066 741.845 851.361 742.884 835.671Z" fill="#FFDFE0"/>
<path d="M751.092 866.003C760.723 864.135 769.112 861.833 778.021 857.714C769.351 854.757 759.54 851.056 750.414 850.248C727.965 848.25 722.086 857.448 722.541 860.109C722.93 862.396 735.698 868.99 751.092 866.003Z" fill="#FFDFE0"/>
<path d="M732.474 886.683C738.93 894.085 745.149 900.195 753.177 905.836C751.36 896.833 749.599 886.474 745.697 878.157C736.102 857.706 725.224 857.244 723.161 858.975C721.386 860.461 722.144 874.845 732.474 886.683Z" fill="#FFDFE0"/>
<g opacity="0.25">
<path d="M369.566 769.131C369.227 771.1 368.751 773.041 368.159 774.938C368.022 775.371 367.885 775.804 367.733 776.237C366.478 779.887 364.797 783.306 362.806 786.545C362.035 787.822 361.205 789.063 360.332 790.289C358.651 792.648 356.819 794.913 354.864 797.106V789.82C355.665 788.752 356.437 787.663 357.173 786.552C358.435 784.641 359.596 782.664 360.614 780.623C361.624 778.632 362.504 776.568 363.239 774.433C363.376 774.029 363.514 773.625 363.643 773.207C365.75 766.513 366.327 759.328 365.317 752.381C365.31 752.352 365.31 752.316 365.303 752.287C365.065 750.693 364.74 749.113 364.321 747.548C363.016 742.693 360.765 738.098 357.353 734.469C357.158 734.245 356.942 734.029 356.725 733.813C356.141 733.236 355.513 732.687 354.864 732.168C353.876 731.389 352.816 730.689 351.705 730.09C352.787 730.386 353.84 730.776 354.864 731.245C356.155 731.822 357.382 732.543 358.536 733.365C359.488 734.036 360.383 734.801 361.212 735.616C363.939 738.314 365.966 741.596 367.409 745.167C368.347 747.483 369.032 749.921 369.494 752.381C369.609 752.951 369.703 753.521 369.789 754.098C370.525 759.082 370.446 764.182 369.566 769.131Z" fill="#1C0930"/>
</g>
<path d="M363.239 774.416C358.016 789.572 345.558 800.883 333.525 811.458C343.834 792.89 345.255 769.59 337.204 749.918C335.322 745.323 332.941 740.172 334.968 735.635C336.274 732.727 339.217 730.816 342.283 729.965C345.377 729.113 348.624 729.222 351.704 730.073C353.543 731.061 355.246 732.331 356.725 733.795C361.63 738.657 364.292 745.438 365.302 752.277C366.391 759.678 365.684 767.346 363.239 774.416Z" fill="#250C3D"/>
<path d="M418.641 629.96C414.587 626.245 410.915 623.662 407.654 621.909C411.304 620.842 415.207 619.161 419.001 616.658C427.196 611.247 434.078 605.909 440.744 598.703C431.604 599.28 421.129 599.619 412.386 602.353C408.253 603.644 404.855 605.087 402.049 606.595C402.186 602.158 401.652 597.044 399.878 591.756C396.747 582.436 393.349 574.4 388.098 566.097C386.33 575.114 383.986 585.357 384.404 594.533C384.657 600.037 385.429 604.467 386.496 608.016C383.156 606.183 379.218 604.604 374.767 603.68C365.158 601.696 356.531 600.593 346.727 600.953C353.602 607.027 361.241 614.22 369.356 618.483C379.153 623.633 386.294 624.752 391.099 624.247C393.068 629.109 399.164 637.679 409.645 642.901C418.432 647.273 426.496 650.548 436.069 652.69C430.962 645.065 425.4 636.156 418.634 629.96H418.641Z" fill="#FFDFE0"/>
<path d="M791.036 719.297C785.821 721.029 781.781 722.976 778.665 724.967C779.523 721.245 779.971 717.018 779.653 712.466C778.961 702.655 777.684 694.02 774.676 684.657C770.708 692.938 765.875 702.259 763.978 711.254C763.083 715.503 762.672 719.182 762.607 722.37C758.82 720.076 754.109 718.042 748.641 717.011C739.004 715.186 730.354 714.226 720.565 714.76C727.541 720.719 735.303 727.774 743.483 731.9C748.389 734.374 752.623 735.86 756.23 736.661C753.006 738.681 749.702 741.357 746.722 744.798C740.295 752.228 735.116 759.24 730.636 767.99C739.278 764.946 749.269 761.786 756.944 756.773C766.214 750.72 770.679 745.022 772.591 740.571C777.785 741.227 788.216 740.087 797.882 733.472C805.983 727.925 812.771 722.471 819.321 715.149C810.189 715.885 799.729 716.397 791.029 719.283L791.036 719.297Z" fill="#FFDFE0"/>
<path d="M594.598 611.756C589.123 612.189 584.737 613.112 581.231 614.302C582.948 610.897 584.391 606.894 585.163 602.4C586.822 592.704 587.637 584.019 586.945 574.201C581.123 581.292 574.205 589.191 570.23 597.465C568.348 601.375 567.078 604.852 566.256 607.933C563.125 604.802 559.035 601.7 553.971 599.384C545.047 595.309 536.874 592.308 527.237 590.475C532.589 597.927 538.447 606.641 545.415 612.607C549.592 616.185 553.343 618.638 556.661 620.283C553.047 621.473 549.202 623.276 545.495 625.909C537.487 631.586 530.786 637.155 524.358 644.578C533.477 643.691 543.929 643.013 552.578 639.983C563.017 636.326 568.708 631.861 571.63 628.001C576.521 629.884 586.916 631.276 597.881 627.164C607.064 623.716 614.956 620.044 623.064 614.504C614.025 613.033 603.738 611.02 594.606 611.742L594.598 611.756Z" fill="#FFDFE0"/>
<path d="M830.409 870.002C842.088 874.244 853.341 879.683 863.931 886.197C868.8 889.19 873.691 892.588 876.569 897.537C879 901.721 879.765 906.669 880.032 911.503C880.638 922.273 879 933.158 875.256 943.265C874.997 939.687 874.73 936.073 873.749 932.617C872.768 929.162 871.007 925.836 868.223 923.578C863.866 920.044 857.828 919.676 852.223 919.524C846.618 919.38 840.616 919.171 836.086 915.867C832.688 913.385 830.618 909.476 829.06 905.558C825.821 897.385 824.313 888.527 824.681 879.733C824.832 876.098 825.417 872.202 827.92 869.569" fill="#240C3D"/>
<g opacity="0.25">
<path d="M329.716 804.492C327.898 814.159 324.904 822.346 320.843 831.306C315.995 841.982 307.663 848.381 302.881 850.523C303.508 855.082 302.758 861.798 298.553 871.032C293.907 872.172 289.11 872.669 284.313 872.424C283.627 872.388 282.913 872.323 282.206 872.201C282.422 870.686 282.668 869.156 282.935 867.591C283.678 863.205 285.077 859.31 286.729 855.955C296.792 847.479 307.108 839.227 315.259 828.933C320.778 821.957 324.334 814.7 326.52 806.801C327.602 806.022 328.67 805.25 329.716 804.5V804.492Z" fill="#1C0930"/>
</g>
<g opacity="0.25">
<path d="M500.378 698.687C496.324 694.972 492.652 692.389 489.392 690.636C493.042 689.569 496.945 687.888 500.739 685.385C508.934 679.975 515.816 674.636 522.481 667.43C513.341 668.007 502.867 668.346 494.124 671.08C489.99 672.371 486.593 673.814 483.787 675.322C483.924 670.885 483.39 665.771 481.615 660.483C478.485 651.163 475.087 643.127 469.835 634.824C468.068 643.841 465.723 654.084 466.142 663.26C466.394 668.764 467.166 673.194 468.234 676.743C464.894 674.91 460.955 673.331 456.504 672.407C446.896 670.424 438.268 669.32 428.464 669.68C435.339 675.754 442.978 682.947 451.094 687.21C460.89 692.361 468.032 693.479 472.836 692.974C474.805 697.836 480.901 706.406 491.383 711.628C500.169 716 508.234 719.275 517.807 721.417C512.699 713.793 507.138 704.884 500.371 698.687H500.378Z" fill="#1C0930"/>
</g>
<path d="M301.179 829.083C286.593 834.197 270.968 835.301 255.697 837.645C252.292 838.165 248.115 839.543 247.747 842.976C247.466 845.595 249.702 847.752 251.852 849.267C268.018 860.715 290.95 861.595 307.946 851.431C315.859 846.699 322.294 839.665 326.651 831.55C329.205 826.789 336.613 810.724 331.823 806.229C323.491 816.906 314.15 824.545 301.187 829.09L301.179 829.083Z" fill="#250C3D"/>
<path d="M498.764 692.254C494.71 688.539 491.038 685.957 487.778 684.204C491.428 683.136 495.331 681.455 499.125 678.952C507.32 673.542 514.202 668.204 520.867 660.997C511.728 661.574 501.253 661.913 492.51 664.647C488.377 665.939 484.979 667.381 482.173 668.889C482.31 664.453 481.776 659.338 480.002 654.05C476.871 644.73 473.473 636.694 468.221 628.391C466.454 637.408 464.11 647.652 464.528 656.828C464.78 662.332 465.552 666.761 466.62 670.31C463.28 668.478 459.341 666.898 454.89 665.975C445.282 663.991 436.654 662.887 426.851 663.248C433.725 669.322 441.365 676.514 449.48 680.777C459.276 685.928 466.418 687.046 471.222 686.541C473.192 691.403 479.287 699.973 489.769 705.196C498.555 709.567 506.62 712.842 516.193 714.985C511.085 707.36 505.524 698.451 498.757 692.254H498.764Z" fill="#DEAAFF"/>
<path d="M363.239 774.414C358.016 789.57 345.558 800.881 333.526 811.456C333.446 811.528 333.36 811.601 333.281 811.673L328.418 810.749C339.29 792.008 340.927 768.167 332.718 748.112C330.835 743.517 328.447 738.367 330.482 733.829C331.787 730.922 334.73 729.01 337.796 728.159C342.442 726.868 347.441 727.762 351.704 730.078C353.544 731.066 355.246 732.336 356.725 733.8C361.631 738.662 364.292 745.443 365.302 752.282C366.392 759.683 365.685 767.351 363.239 774.421V774.414Z" fill="#250C3D"/>
<path d="M200.41 1124.07C173.186 1083.41 152.879 1038.83 140.046 991.576C135.35 974.284 130.971 953.913 134.058 933.959C136.352 919.179 142.585 905.415 148.608 892.098C151.717 885.238 154.928 878.147 157.539 871.034C164.356 852.459 166.635 833.046 163.945 816.354C162.372 806.608 156.01 798.457 146.906 794.54C137.846 790.644 127.595 791.625 119.494 797.158L119.169 797.382C108.399 804.855 101.423 817.652 100.969 830.781L96.6333 830.63C97.1383 816.166 104.828 802.063 116.695 793.825L117.055 793.58C126.39 787.203 138.192 786.071 148.623 790.558C159.09 795.059 166.419 804.444 168.23 815.661C171.822 837.973 166.614 858.9 161.615 872.52C158.953 879.777 155.707 886.948 152.569 893.88C146.661 906.93 140.551 920.427 138.35 934.616C135.378 953.768 139.656 973.577 144.237 990.429C156.947 1037.23 177.059 1081.38 204.017 1121.65L200.417 1124.06L200.41 1124.07Z" fill="#240C3D"/>
<path d="M72.9227 818.141C77.0994 821.719 80.8577 824.172 84.1688 825.816C80.5547 827.007 76.7098 828.817 73.0019 831.45C64.9947 837.127 58.2933 842.696 51.873 850.134C60.9912 849.247 71.4438 848.561 80.0931 845.531C84.1761 844.096 87.5306 842.545 90.279 840.943C90.2862 845.38 90.9931 850.473 92.9408 855.696C96.3818 864.908 100.046 872.821 105.572 880.944C107.036 871.876 109.035 861.56 108.313 852.399C107.881 846.909 106.957 842.509 105.767 838.996C109.165 840.713 113.154 842.163 117.633 842.934C127.3 844.594 135.964 845.409 145.745 844.716C138.676 838.88 130.799 831.948 122.546 827.959C112.584 823.14 105.413 822.267 100.623 822.931C98.4881 818.134 92.1183 809.78 81.4636 804.911C72.5402 800.835 64.3672 797.841 54.7297 796.016C60.0895 803.468 65.947 812.182 72.9155 818.141H72.9227Z" fill="#1C0838"/>
<path d="M153.794 898.959C129.455 915.948 109.019 938.527 94.5047 964.46C92.7373 945.762 95.7672 925.996 106.508 910.617C117.25 895.237 136.647 885.246 154.999 888.99" fill="#250C3D"/>
<path d="M145.751 909.663C156.803 914.078 167.046 927.906 171.569 938.943C176.092 949.98 177.586 961.991 179.036 973.836C181.64 962.518 184.251 951.113 184.612 939.499C184.972 927.892 182.946 915.924 176.85 906.041C170.754 896.166 160.179 888.678 148.608 888.202" fill="#250C3D"/>
<path d="M425.378 569.378C418.178 562.554 416.692 550.593 421.908 541.547C421.966 541.446 422.023 541.345 422.081 541.244C421.807 540.595 421.554 539.931 421.324 539.26C417.515 528.021 420.48 514.784 428.876 505.536C432.094 501.994 436.032 499.094 440.411 496.945C440.786 492.876 442.474 488.836 445.288 485.403C449.147 480.699 454.543 477.872 460.097 477.648L460.271 481.976C455.957 482.149 451.715 484.4 448.635 488.151C446.925 490.229 445.742 492.573 445.129 494.975C450.135 493.244 455.538 492.422 461.014 492.645C467.773 492.919 475.607 495.726 477.345 502.788C479.055 509.735 473.097 516.393 466.467 518.247C461.115 519.74 455.113 518.716 449.991 515.426C444.913 512.166 441.493 507.188 440.57 501.742C437.374 503.531 434.489 505.789 432.072 508.451C425.024 516.22 422.297 527.632 425.169 537.111C430.478 531.39 438.478 528.05 446.817 528.324C452.516 528.512 457.601 530.388 461.151 533.598C465.45 537.493 467.34 543.502 465.847 548.552C463.675 555.888 455.582 559.344 448.974 559.445C439.351 559.589 429.987 554.186 424.57 545.919C421.749 552.851 423.221 561.371 428.35 566.233L425.37 569.378H425.378ZM427.058 541.619C431.408 549.756 440.072 555.268 448.923 555.109C453.995 555.03 460.162 552.555 461.713 547.318C462.745 543.827 461.36 539.607 458.265 536.808C455.481 534.283 451.369 532.811 446.694 532.653C438.997 532.4 431.416 535.928 427.058 541.619ZM444.703 499.758C444.732 500.126 444.776 500.494 444.833 500.855C445.511 505.154 448.245 509.136 452.343 511.769C456.418 514.388 461.143 515.224 465.306 514.063C469.886 512.779 474.236 508.256 473.147 503.812C471.986 499.08 465.796 497.168 460.848 496.966C455.235 496.735 449.695 497.724 444.703 499.751V499.758Z" fill="#FFDFE0"/>
<path d="M760.298 568.274C759.988 568.274 759.685 568.266 759.375 568.252L759.598 563.924C763.92 564.147 768.342 562.293 771.746 558.845C773.636 556.934 775.036 554.712 775.858 552.375C770.715 553.637 765.254 553.962 759.822 553.233C753.121 552.338 745.575 548.818 744.493 541.633C743.425 534.557 749.968 528.475 756.742 527.242C762.21 526.246 768.089 527.819 772.886 531.563C777.64 535.278 780.598 540.551 781.016 546.055C784.363 544.569 787.444 542.586 790.091 540.154C797.824 533.071 801.575 521.947 799.584 512.245C793.777 517.453 785.503 520.043 777.222 519.004C771.566 518.29 766.668 515.96 763.429 512.439C759.505 508.169 758.177 502.008 760.125 497.117C762.953 490.012 771.335 487.314 777.929 487.819C787.516 488.547 796.353 494.802 800.998 503.53C804.439 496.886 803.754 488.273 799.094 482.957L802.354 480.1C808.897 487.552 809.287 499.606 803.263 508.133C803.198 508.227 803.126 508.32 803.061 508.414C803.278 509.085 803.465 509.77 803.631 510.463C806.394 522.005 802.232 534.917 793.027 543.35C789.499 546.582 785.316 549.107 780.756 550.845C780.006 554.863 777.965 558.73 774.841 561.889C770.802 565.98 765.55 568.274 760.305 568.274H760.298ZM760.01 531.274C759.173 531.274 758.336 531.347 757.514 531.498C752.832 532.356 748.093 536.461 748.771 540.984C749.499 545.803 755.487 548.277 760.392 548.934C765.961 549.677 771.566 549.201 776.724 547.642C776.724 547.274 776.724 546.907 776.695 546.539C776.414 542.189 774.055 537.976 770.21 534.975C767.13 532.566 763.516 531.274 760.002 531.274H760.01ZM776.298 492.082C771.501 492.082 765.997 494.059 764.143 498.712C762.794 502.088 763.79 506.423 766.61 509.496C769.157 512.266 773.11 514.113 777.748 514.697C785.388 515.657 793.258 512.836 798.12 507.577C794.535 499.072 786.426 492.804 777.582 492.133C777.164 492.104 776.731 492.082 776.291 492.082H776.298Z" fill="#FFDFE0"/>
<path d="M216.505 951.574C234.028 943.091 248.578 928.57 257.126 911.033C256.26 919.011 256.304 927.098 254.868 934.997C253.432 942.896 250.316 950.824 244.3 956.112C237.526 962.063 228.018 963.874 219.009 963.765" fill="#240C3D"/>
<path d="M224.483 874.738C216.599 870.64 212.999 861.248 211.802 852.425C210.604 843.603 211.116 834.47 208.404 825.987C201.876 835.365 199.106 847.304 200.837 858.608C202.568 869.912 212.105 882.651 221.143 889.627" fill="#240C3D"/>
<path d="M768.01 914.149C777.193 908.645 784.392 899.88 788.013 889.788C789.629 896.959 791.079 904.468 789.247 911.581C787.415 918.694 781.312 925.244 773.99 925.114" fill="#240C3D"/>
<path d="M779.047 952.992C769.756 949.955 761.51 943.795 755.956 935.737C754.549 943.088 756.194 950.98 760.414 957.155C764.634 963.33 771.386 967.708 778.73 969.036" fill="#240C3D"/>
<path d="M898.066 834.944C911.902 834.49 925.457 840.823 934.452 851.269C936.963 854.183 939.062 857.444 940.721 860.914C941.147 861.794 942.402 862.025 943.195 861.563C944.097 861.036 944.27 859.976 943.845 859.089C937.475 845.83 924.699 835.947 910.43 832.585C906.391 831.633 902.221 831.193 898.073 831.33C895.758 831.41 895.743 835.016 898.073 834.944H898.066Z" fill="#240C3D"/>
<path d="M930.562 1154.07C921.826 1160.55 910.474 1162.72 899.487 1163.21C876.602 1164.23 852.67 1158.97 831.318 1167.04C814.049 1173.57 801.253 1187.9 790.91 1202.81C776.685 1223.3 765.415 1247.26 767.636 1271.87C767.868 1274.49 768.287 1277.07 768.885 1279.61H634.611C633.766 1278.34 632.883 1277.11 631.971 1275.89C615.712 1254.37 588.699 1240.88 561.192 1240.56C537.058 1240.27 513.238 1249.46 489.276 1246.71C445.158 1241.66 416.178 1199.26 375.344 1182.3C339.288 1167.32 297.901 1173.64 259.759 1182.49C221.61 1191.35 182.57 1202.56 143.838 1196.58C112.225 1191.7 83.9476 1175.92 56.7771 1160.36C34.3258 1147.49 11.7847 1133.83 -13 1125.55V1096.31C-6.11951 1097.22 0.678802 1098.8 7.29005 1101.09C34.7522 1110.58 58.8786 1130.35 87.9337 1132.6C135.289 1136.28 174.089 1092.61 221.445 1089.04C273.168 1085.14 317.136 1129.49 368.934 1132.26C418.534 1134.91 463.287 1099.01 512.961 1099.29C546.526 1099.48 577.249 1116.09 608.039 1129.05C638.829 1142 674.832 1151.49 705.241 1137.69C731.962 1125.57 751.908 1096.55 781.405 1096.86C799.593 1097.05 816.144 1108.99 834.317 1108.49C868.772 1107.55 884.477 1066.7 912.052 1046.63C916.569 1043.35 921.505 1040.67 926.71 1038.59C926.919 1040.81 927.234 1043.01 927.652 1045.17C931.339 1064.22 940.815 1081.83 944.966 1100.79C949.109 1119.76 946.439 1142.29 930.562 1154.07V1154.07Z" fill="#180829"/>
<path d="M645.793 1279.61H-13V1124.77C12.2127 1133.1 35.143 1146.83 57.982 1159.76C85.6216 1175.4 114.387 1191.26 146.546 1196.16C185.947 1202.17 225.661 1190.9 264.469 1182C303.269 1173.1 345.372 1166.76 382.049 1181.81C423.589 1198.86 453.069 1241.47 497.949 1246.55C522.324 1249.31 546.556 1240.07 571.106 1240.36C599.088 1240.69 626.568 1254.24 643.108 1275.87C644.036 1277.09 644.934 1278.34 645.793 1279.61Z" fill="#1C0930"/>
<path d="M978.112 1031.59V1271.38H771.417C770.839 1268.85 770.436 1266.27 770.212 1263.66C768.069 1239.12 778.94 1215.21 792.661 1194.77C802.638 1179.9 814.98 1165.6 831.637 1159.09C852.232 1151.05 875.316 1156.29 897.39 1155.27C907.987 1154.78 918.938 1152.61 927.363 1146.15C942.678 1134.4 945.253 1111.92 941.257 1093C937.253 1074.08 911.249 1062.4 915.448 1039.63C916.039 1036.43 916.39 1034.59 917.639 1031.58C926.694 1009.77 961.109 1023.88 978.112 1031.58V1031.59Z" fill="#423B5C"/>
<path d="M141.849 1194.71C146.019 1183.11 148.919 1172.57 150.21 1160.31C141.474 1167.78 131.223 1176.01 124.507 1185.34C107.981 1208.31 114.091 1220.55 117.236 1221.77C119.941 1222.82 135.198 1213.25 141.857 1194.71L141.849 1194.71Z" fill="#FFDFE0"/>
<path d="M39.0684 1191.07C38.65 1178.75 40.0494 1167.9 42.5742 1155.83C45.4381 1142.1 53.2506 1132.27 58.5311 1127.98L66.7547 1129.39C69.2651 1134.61 70.1668 1145.35 61.0487 1162.68C55.6889 1172.86 46.6789 1182.44 39.0684 1191.06V1191.07Z" fill="#1C0838"/>
<path d="M413.692 1199.31C409.487 1210.9 406.551 1221.43 405.216 1233.68C413.974 1226.23 424.253 1218.04 431.005 1208.73C447.611 1185.82 441.545 1173.56 438.407 1172.33C435.709 1171.28 420.416 1180.79 413.692 1199.31Z" fill="#FFDFE0"/>
<path d="M672.551 1279.16H650.419C649.582 1277.26 648.781 1275.16 648.031 1272.86C644.872 1263.13 644.684 1251.23 644.165 1240.86C652.835 1247.81 659.22 1255.17 665.654 1264.02C669.304 1269.03 671.433 1274.33 672.551 1279.16Z" fill="#FFDFE0"/>
<path d="M570.295 1187.63C565.144 1176.43 559.835 1166.89 552.166 1157.25C551.178 1168.72 549.634 1181.8 551.38 1193.18C555.687 1221.17 568.607 1225.59 571.694 1224.24C574.349 1223.08 578.518 1205.52 570.287 1187.63H570.295Z" fill="#FFDFE0"/>
<path d="M927.635 1128.62C934.827 1138.62 941.868 1146.97 951.224 1154.96C950.005 1143.51 949.024 1130.38 945.136 1119.55C935.563 1092.9 922.037 1091.05 919.267 1092.96C916.88 1094.61 916.144 1112.64 927.642 1128.63L927.635 1128.62Z" fill="#1C0838"/>
<path d="M923.336 1247.61C934.459 1253.72 944.689 1258.41 956.851 1261.79C950.46 1251.85 943.513 1240.27 934.986 1232.01C914.016 1211.69 900.923 1215.65 899.292 1218.56C897.893 1221.06 905.554 1237.83 923.336 1247.61V1247.61Z" fill="#1C0838"/>
<path d="M752.869 1205.19C755.768 1193.21 757.521 1182.41 757.485 1170.09C749.601 1178.45 740.295 1187.74 734.618 1197.75C720.652 1222.37 728.039 1233.88 731.292 1234.75C734.091 1235.5 748.237 1224.34 752.869 1205.19Z" fill="#FFDFE0"/>
<path d="M245.194 1150.9C237.461 1141.32 229.965 1133.38 220.176 1125.92C222.03 1137.28 223.74 1150.34 228.227 1160.94C239.264 1187.01 252.869 1188.1 255.531 1186.03C257.818 1184.25 257.558 1166.21 245.194 1150.9V1150.9Z" fill="#FFDFE0"/>
<path d="M278.975 1159.36C283.325 1147.83 286.398 1137.34 287.884 1125.1C279.033 1132.43 268.653 1140.49 261.785 1149.72C244.898 1172.42 250.806 1184.75 253.929 1186.02C256.613 1187.11 272.021 1177.79 278.983 1159.36H278.975Z" fill="#FFDFE0"/>
<path d="M185.197 1279.16H163.059C161.435 1276.42 159.82 1273.22 158.254 1269.53C153.767 1258.93 152.058 1245.87 150.204 1234.5C159.993 1241.96 167.488 1249.9 175.221 1259.48C178.806 1263.92 181.374 1268.59 183.156 1273.02C184.007 1275.14 184.678 1277.2 185.197 1279.16Z" fill="#FFDFE0"/>
<path d="M217.904 1233.68C216.418 1245.91 213.352 1256.41 208.995 1267.93C207.4 1272.16 205.359 1275.91 203.13 1279.16H181.135C181.575 1277.28 182.232 1275.23 183.155 1273.01C184.93 1268.72 187.693 1263.81 191.804 1258.29C198.665 1249.06 209.052 1241 217.904 1233.68Z" fill="#FFDFE0"/>
<path d="M863.028 1154.52C875.249 1155.81 886.148 1156.12 898.325 1154.44C889.005 1147.72 878.596 1139.7 867.948 1135.39C841.762 1124.79 831.367 1133.65 830.942 1137.01C830.574 1139.89 843.486 1152.47 863.021 1154.52H863.028Z" fill="#1C0838"/>
<path d="M833.186 1172.5C838.235 1183.74 843.465 1193.34 851.04 1203.05C852.129 1191.58 853.795 1178.52 852.143 1167.13C848.082 1139.1 835.205 1134.57 832.104 1135.89C829.434 1137.02 825.113 1154.54 833.186 1172.51V1172.5Z" fill="#1C0838"/>
<mask id="mask0_101_966" style="mask-type:luminance" maskUnits="userSpaceOnUse" x="73" y="-9" width="736" height="1288">
<path d="M73.8384 1278.76L640.983 -8.7644H805.275L808.983 1278.76H73.8384Z" fill="white"/>
</mask>
<g mask="url(#mask0_101_966)">
<path d="M981.565 153.25V1039.35C959.606 1029.41 932.274 1032.21 912.962 1046.74C886.365 1066.75 871.217 1107.5 837.983 1108.45C820.453 1108.95 804.489 1097.03 786.946 1096.84C758.495 1096.54 739.256 1125.49 713.481 1137.58C684.15 1151.34 649.423 1141.88 619.724 1128.95C590.025 1116.02 560.391 1099.45 528.016 1099.27C480.102 1098.99 436.935 1134.8 389.093 1132.16C339.131 1129.4 296.721 1085.16 246.831 1089.04C201.154 1092.61 163.729 1136.16 118.052 1132.5C90.0262 1130.26 66.7546 1110.53 40.2658 1101.06C33.8888 1098.78 27.3315 1097.2 20.6948 1096.29V13.6637C25.8094 14.1038 30.8879 15.1714 35.7139 16.7223C54.6067 22.8107 70.715 35.1895 87.8837 45.1661C121.197 64.5278 163.036 74.8579 198.196 59.1536C213.143 52.4736 226.041 41.4799 241.565 36.286C294.658 18.5402 352.368 74.2808 405.036 55.2726C424.094 48.3979 439.503 32.2968 459.463 28.8559C489.848 23.6187 518.075 49.3285 548.899 48.3257C568.254 47.6981 586.909 35.2905 594.49 17.4077C597.967 9.21285 598.955 0.0513967 597.65 -8.76379H743.577C754.765 1.44365 764.395 13.368 771.912 26.5475C779.285 39.4817 785.734 54.6161 799.238 60.8127C811.782 66.5621 826.354 62.6667 840.147 62.645C862.3 62.6162 884.194 73.6099 897.446 91.4134C908.923 106.829 914.16 126.797 928.126 139.998C940.771 151.951 959.311 156.525 976.523 154.144C978.218 153.913 979.899 153.617 981.565 153.257V153.25Z" fill="#C67DFF"/>
<path d="M280.39 1178.92C258.338 1141.61 241.617 1101.11 230.681 1058.56C219.752 1016 214.882 972.439 216.217 929.084C217.364 891.66 223.25 856.074 233.703 823.295C245.122 787.5 261.786 755.861 283.24 729.271C300.034 708.459 320.174 690.216 339.659 672.578C359.799 654.342 380.625 635.485 397.621 613.858L400.463 616.087C383.28 637.952 362.338 656.91 342.089 675.247C322.706 692.798 302.666 710.941 286.06 731.536C234.374 795.601 221.519 874.383 219.838 929.193C217.198 1015.11 239.813 1103.14 283.514 1177.08L280.405 1178.92H280.39Z" fill="#240C3D"/>
<path d="M672.038 1198.17L670.061 1195.15C735.504 1152.3 778.282 1073.97 779.032 995.584C779.494 947.736 765.867 896.352 737.373 838.498C696.882 756.276 637.881 682.364 566.753 624.755L569.026 621.949C640.557 679.889 699.897 754.22 740.612 836.904C769.358 895.277 783.108 947.195 782.646 995.62C782.271 1034.96 771.724 1074.69 752.161 1110.53C732.597 1146.36 704.889 1176.67 672.045 1198.18L672.038 1198.17Z" fill="#240C3D"/>
<path d="M611.903 718.234H354.812V1242.23H611.903V718.234Z" fill="#FFDFE0"/>
<path d="M690.199 726.483V726.548L617.564 779.324C615.638 778.797 613.748 778.177 611.902 777.463V783.428C594.646 776.756 581.51 755.836 576.893 737.607L390.476 736.676C385.859 754.891 372.081 776.741 354.811 783.428V777.463C348.376 779.959 341.386 781.315 334.072 781.315C303.262 781.315 278.079 757.033 276.513 726.519V726.483C277.891 699.258 298.061 677.026 324.268 672.51V671.659H634.423V671.709C664.425 672.633 688.67 696.553 690.192 726.483H690.199Z" fill="#87371B"/>
<path d="M690.272 723.507C690.272 724.502 690.243 725.505 690.193 726.486V726.544C688.613 757.058 663.437 781.325 632.627 781.325C627.411 781.325 622.362 780.625 617.558 779.327C615.632 778.8 613.741 778.18 611.902 777.466C594.647 770.786 581.388 756.019 576.771 737.79H389.942C385.326 756.012 372.081 770.786 354.812 777.466C348.384 779.962 341.387 781.325 334.072 781.325C303.262 781.325 278.086 757.044 276.521 726.522V726.486C276.47 725.505 276.441 724.502 276.441 723.507C276.441 716.365 277.733 709.476 280.092 703.085C288.467 680.376 310.584 665.696 334.728 665.696H634.43V665.747C665.428 666.692 690.272 692.185 690.272 723.507Z" fill="#FFDFE0"/>
<path d="M348.341 754.213C331.461 754.213 317.726 740.442 317.726 723.511C317.726 706.581 331.461 692.81 348.341 692.81C365.221 692.81 378.956 706.581 378.956 723.511C378.956 740.442 365.221 754.213 348.341 754.213ZM348.341 696.539C333.517 696.539 321.463 708.637 321.463 723.504C321.463 738.372 333.524 750.469 348.341 750.469C363.158 750.469 375.22 738.372 375.22 723.504C375.22 708.637 363.158 696.539 348.341 696.539Z" fill="#C67DFF"/>
<path d="M632.699 754.213C615.819 754.213 602.084 740.442 602.084 723.511C602.084 706.581 615.819 692.81 632.699 692.81C649.579 692.81 663.314 706.581 663.314 723.511C663.314 740.442 649.579 754.213 632.699 754.213ZM632.699 696.539C617.875 696.539 605.821 708.637 605.821 723.504C605.821 738.372 617.882 750.469 632.699 750.469C647.516 750.469 659.577 738.372 659.577 723.504C659.577 708.637 647.516 696.539 632.699 696.539Z" fill="#C67DFF"/>
<path d="M632.699 692.805H348.341V696.542H632.699V692.805Z" fill="#C67DFF"/>
<g opacity="0.55">
<path d="M632.699 750.469H348.34V754.206H632.699V750.469Z" fill="#C67DFF"/>
</g>
<path d="M612.196 787.339H352.185V791.721H612.196V787.339Z" fill="#C67DFF"/>
<path d="M613.657 1029.82H352.185V1034.2H613.657V1029.82Z" fill="#C67DFF"/>
<path d="M563.39 737.753H557.417C555.938 724.703 549.395 714.871 541.554 714.871C539.837 714.871 538.185 715.347 536.627 716.22C539.462 711.877 543.155 709.259 547.217 709.259C556.147 709.259 563.39 722.02 563.39 737.753Z" fill="#C67DFF"/>
<path d="M520.821 737.753H514.841C513.362 724.703 506.819 714.871 498.978 714.871C497.275 714.871 495.616 715.333 494.08 716.22C496.9 711.877 500.601 709.259 504.655 709.259C513.586 709.259 520.828 722.02 520.828 737.753H520.821Z" fill="#C67DFF"/>
<path d="M478.239 737.753H472.266C470.787 724.703 464.244 714.871 456.403 714.871C454.686 714.871 453.034 715.347 451.476 716.22C454.311 711.877 458.004 709.259 462.066 709.259C470.996 709.259 478.239 722.02 478.239 737.753Z" fill="#C67DFF"/>
<path d="M435.671 737.753H429.698C428.219 724.703 421.676 714.871 413.835 714.871C412.118 714.871 410.466 715.347 408.908 716.22C411.743 711.877 415.437 709.259 419.491 709.259C428.421 709.259 435.664 722.02 435.664 737.753H435.671Z" fill="#C67DFF"/>
<path d="M557.416 737.751H531.042C531.042 729.152 533.207 721.433 536.626 716.218C538.184 715.345 539.836 714.869 541.553 714.869C549.387 714.869 555.93 724.701 557.416 737.751Z" fill="#87371B"/>
<path d="M514.833 737.751H488.475C488.475 729.152 490.639 721.433 494.072 716.218C495.616 715.331 497.268 714.869 498.97 714.869C506.805 714.869 513.347 724.701 514.833 737.751Z" fill="#87371B"/>
<path d="M472.266 737.751H445.893C445.893 729.152 448.057 721.433 451.476 716.218C453.035 715.345 454.686 714.869 456.403 714.869C464.237 714.869 470.78 724.701 472.266 737.751Z" fill="#87371B"/>
<path d="M429.698 737.751H403.325C403.325 729.152 405.489 721.433 408.908 716.218C410.466 715.345 412.118 714.869 413.835 714.869C421.669 714.869 428.212 724.701 429.698 737.751Z" fill="#87371B"/>
<path d="M587.996 840.887V965.093C587.996 971.946 583.321 977.696 577.002 979.326C577.399 977.977 577.622 976.556 577.622 975.07V850.864C577.622 846.795 575.978 843.131 573.33 840.469C570.683 837.807 567.025 836.162 562.978 836.162C561.709 836.162 560.475 836.321 559.307 836.624C561.125 830.586 566.708 826.178 573.337 826.178C577.377 826.178 581.049 827.823 583.696 830.485C586.344 833.139 587.988 836.811 587.988 840.88L587.996 840.887Z" fill="#C67DFF"/>
<path d="M527.999 840.887V965.093C527.999 971.946 523.332 977.696 517.013 979.326C517.41 977.977 517.633 976.556 517.633 975.07V850.864C517.633 846.795 515.989 843.131 513.341 840.469C510.694 837.814 507.036 836.162 502.982 836.162C501.713 836.162 500.493 836.321 499.325 836.624C501.143 830.586 506.726 826.178 513.356 826.178C517.395 826.178 521.053 827.823 523.707 830.485C526.355 833.139 527.999 836.811 527.999 840.88V840.887Z" fill="#C67DFF"/>
<path d="M468.017 840.887V965.093C468.017 971.946 463.35 977.696 457.03 979.326C457.427 977.977 457.651 976.556 457.651 975.07V850.864C457.651 846.795 456.006 843.131 453.359 840.469C450.711 837.807 447.054 836.162 443 836.162C441.73 836.162 440.511 836.321 439.342 836.624C441.16 830.586 446.744 826.178 453.359 826.178C457.398 826.178 461.07 827.823 463.718 830.485C466.365 833.147 468.01 836.811 468.01 840.88L468.017 840.887Z" fill="#C67DFF"/>
<path d="M408.035 840.887V965.093C408.035 971.946 403.367 977.696 397.048 979.326C397.445 977.977 397.669 976.556 397.669 975.07V850.864C397.669 846.795 396.024 843.131 393.376 840.469C390.729 837.814 387.057 836.162 383.017 836.162C381.748 836.162 380.514 836.321 379.346 836.624C381.164 830.586 386.761 826.178 393.376 826.178C397.416 826.178 401.088 827.823 403.735 830.485C406.383 833.147 408.028 836.811 408.028 840.88L408.035 840.887Z" fill="#C67DFF"/>
<path d="M577.623 850.86V975.066C577.623 976.552 577.399 977.974 577.002 979.322C575.834 979.625 574.615 979.784 573.345 979.784C565.244 979.784 558.694 973.205 558.694 965.09V840.884C558.694 839.398 558.903 837.976 559.314 836.627C560.483 836.324 561.716 836.166 562.986 836.166C567.026 836.166 570.683 837.811 573.338 840.472C575.992 843.134 577.63 846.799 577.63 850.867L577.623 850.86Z" fill="#87371B"/>
<path d="M517.632 850.86V975.066C517.632 976.552 517.409 977.974 517.012 979.322C515.843 979.625 514.624 979.784 513.355 979.784C505.254 979.784 498.704 973.205 498.704 965.09V840.884C498.704 839.398 498.913 837.976 499.324 836.627C500.493 836.324 501.712 836.166 502.981 836.166C507.035 836.166 510.693 837.811 513.34 840.472C515.988 843.127 517.632 846.799 517.632 850.867V850.86Z" fill="#87371B"/>
<path d="M457.65 850.86V975.066C457.65 976.552 457.427 977.974 457.03 979.322H457.016C455.847 979.625 454.628 979.784 453.358 979.784C445.272 979.784 438.714 973.205 438.714 965.09V840.884C438.714 839.398 438.924 837.976 439.335 836.627C440.503 836.324 441.723 836.166 442.992 836.166C447.046 836.166 450.704 837.811 453.351 840.472C455.999 843.134 457.643 846.799 457.643 850.867L457.65 850.86Z" fill="#87371B"/>
<path d="M397.668 850.86V975.066C397.668 976.552 397.445 977.974 397.048 979.322H397.034C395.865 979.625 394.646 979.784 393.376 979.784C385.29 979.784 378.725 973.205 378.725 965.09V840.884C378.725 839.398 378.934 837.976 379.346 836.627C380.514 836.324 381.748 836.166 383.017 836.166C387.057 836.166 390.729 837.811 393.376 840.472C396.024 843.127 397.668 846.799 397.668 850.867V850.86Z" fill="#87371B"/>
<path d="M348.342 737.645C356.127 737.645 362.437 731.315 362.437 723.506C362.437 715.697 356.127 709.367 348.342 709.367C340.557 709.367 334.246 715.697 334.246 723.506C334.246 731.315 340.557 737.645 348.342 737.645Z" fill="#87371B"/>
<path d="M632.699 737.645C640.484 737.645 646.795 731.315 646.795 723.506C646.795 715.697 640.484 709.367 632.699 709.367C624.914 709.367 618.604 715.697 618.604 723.506C618.604 731.315 624.914 737.645 632.699 737.645Z" fill="#87371B"/>
<path d="M601.932 679.623C601.932 691.18 553.348 700.543 493.416 700.543C433.484 700.543 384.907 691.172 384.907 679.623C384.907 674.271 395.338 669.387 412.493 665.686H574.354C591.509 669.387 601.94 674.271 601.94 679.623H601.932Z" fill="#C792BD"/>
<path d="M654.739 446.024L556.329 412.682L663.51 94.3903L805.419 -1.42981L730.764 220.277L654.739 446.024Z" fill="#423B5C"/>
<path d="M576.715 544.61L573.043 521.208L556.321 412.678C563.961 410.506 570.756 408.306 577.494 407.267C578.569 407.102 579.622 406.95 580.668 406.813C592.974 405.175 603.73 405.442 613.007 407.354C613.959 407.549 614.904 407.765 615.827 407.996C625.479 410.405 633.422 414.712 639.705 420.613C640.506 421.349 641.263 422.113 641.999 422.907C647.849 429.161 652.069 436.959 654.738 446.02L590.666 526.972L576.715 544.61Z" fill="#FFDFE0"/>
<path d="M642.006 422.907C641.263 422.114 640.505 421.349 639.712 420.613C668.127 330.672 696.975 239.743 725.815 149.831C739.233 107.991 752.643 66.3752 766.01 25.1848L769.898 22.559C756.019 65.3148 742.082 108.525 728.152 151.988C699.297 241.958 670.435 332.945 642.006 422.914V422.907Z" fill="#180829"/>
<path d="M615.827 408.005C614.904 407.774 613.959 407.558 613.007 407.363C640.845 317.956 671.431 220.397 703.352 120.408C710.515 97.9947 717.729 75.4662 725.007 52.8799L728.888 50.2614C720.953 74.8963 713.076 99.4663 705.285 123.885C673.689 222.872 643.42 319.442 615.842 408.005H615.827Z" fill="#180829"/>
<path d="M580.668 406.816C579.614 406.946 578.561 407.104 577.494 407.27C588.596 372.464 599.791 337.362 611.009 302.145C634.309 229.041 657.826 155.28 681.169 82.4645L685.051 79.8459C661.332 153.787 637.44 228.752 613.757 303.032C602.67 337.802 591.625 372.457 580.668 406.823V406.816Z" fill="#180829"/>
<path d="M576.714 544.617L573.042 521.216C579.398 518.965 586.691 521.158 590.666 526.98L576.714 544.617Z" fill="#2D0F4E"/>
<path d="M958.28 0.0073358V162.021C956.614 162.381 954.933 162.677 953.238 162.908C936.026 165.289 917.486 160.715 904.841 148.762C890.875 135.561 885.638 115.593 874.161 100.177C860.909 82.3738 839.015 71.3801 816.862 71.4089C803.069 71.4306 788.497 75.3332 775.953 69.5766C762.449 63.3728 756 48.2456 748.627 35.3114C741.11 22.1391 731.48 10.2148 720.292 0.00012207H958.28V0.0073358Z" fill="#DEAAFF"/>
<path d="M981.565 155.318V199.77C957.031 214.457 928.349 222.897 897.698 222.897C821.636 222.897 757.672 170.929 739.176 100.465C711.663 121.861 672.954 135.178 630.083 135.178C579.926 135.178 535.475 116.949 507.969 88.8871C480.463 116.956 436.012 135.178 385.855 135.178C360.866 135.178 337.299 130.655 316.538 122.64C316.538 122.64 316.533 122.638 316.523 122.633C311.452 180.264 263.214 225.45 204.443 225.45C189.561 225.45 175.365 222.558 162.366 217.299C142.557 209.284 125.547 195.78 113.204 178.662C110.326 179.665 107.397 180.567 104.425 181.338C103.4 181.598 102.369 181.851 101.337 182.081C93.229 183.95 84.789 184.931 76.1108 184.931C73.5211 184.931 70.9531 184.844 68.4066 184.671C67.0793 184.585 65.7664 184.469 64.4535 184.332C48.6698 182.702 33.8527 177.804 20.6948 170.316V15.7326C25.8094 16.1726 30.8879 17.2402 35.7139 18.7912C54.6067 24.8796 70.715 37.2584 87.8837 47.235C121.197 66.5967 163.036 76.9267 198.196 61.2224C213.143 54.5425 226.041 43.5488 241.565 38.3549C294.658 20.6091 352.368 76.3496 405.036 57.3414C424.094 50.4667 439.503 34.3657 459.463 30.9247C489.848 25.6875 518.075 51.3973 548.899 50.3946C568.254 49.767 586.909 37.3594 594.49 19.4765C597.967 11.2817 598.955 2.12024 597.65 -6.69495H743.577C754.765 3.5125 764.395 15.4368 771.912 28.6163C779.285 41.5505 785.734 56.685 799.238 62.8816C811.782 68.6309 826.354 64.7355 840.147 64.7139C862.3 64.685 884.194 75.6788 897.446 93.4823C908.923 108.898 914.16 128.866 928.126 142.067C940.771 154.02 959.311 158.593 976.523 156.213C978.218 155.982 979.899 155.686 981.565 155.326V155.318Z" fill="#FFDFE0"/>
<g opacity="0.25">
<path d="M640.709 933.581L638.79 935.182C629.758 935.42 620.705 934.49 611.904 932.448V938.306C604.46 936.791 597.181 934.489 590.227 931.431C589.484 931.106 588.734 930.767 587.998 930.421C584.391 928.718 580.878 926.771 577.624 924.491C574.775 922.5 572.12 920.242 569.769 917.66C564.185 911.528 560.448 903.413 560.809 895.124C561.011 890.457 562.678 885.797 565.469 882.082C567.634 879.196 570.468 876.866 573.83 875.539C573.83 879.68 575.287 883.575 577.624 886.987C580.034 890.5 583.374 893.494 587.031 895.68C587.349 895.867 587.673 896.055 587.998 896.235C594.981 900.138 602.959 901.869 610.7 903.939C611.103 904.048 611.5 904.156 611.904 904.264C619.616 906.378 627.37 909.119 633.25 914.507C638.48 919.312 641.827 926.742 640.709 933.588V933.581Z" fill="#1C0930"/>
</g>
<path d="M583.77 1140.69L579.745 1139.08C585.444 1124.79 596.084 1113.3 606.371 1102.19C616.889 1090.83 627.767 1079.09 632.838 1064.64C639.035 1047 636.027 1028.56 632.838 1009.04C630.717 996.043 628.525 982.611 629.289 969.403C630.299 951.967 636.431 934.885 647.504 918.633C657.329 904.205 670.869 890.917 686.653 880.205C696.514 873.511 707.111 867.718 717.354 862.12C727.129 856.775 737.236 851.249 746.606 844.987C769.445 829.723 783.526 812.324 788.446 793.272C793.734 772.807 785.25 745.575 764.179 737.654L765.701 733.6C776.449 737.64 785.099 746.491 790.055 758.524C794.679 769.748 795.624 782.812 792.637 794.361C787.436 814.473 772.756 832.717 749.008 848.594C739.472 854.964 729.279 860.54 719.425 865.929C709.268 871.483 698.772 877.226 689.077 883.797C656.168 906.131 635.428 938.232 633.603 969.663C632.867 982.395 635.017 995.581 637.102 1008.34C640.24 1027.55 643.479 1047.4 636.914 1066.08C631.54 1081.37 620.351 1093.46 609.538 1105.14C599.518 1115.96 589.159 1127.15 583.756 1140.69H583.77Z" fill="#240C3D"/>
<path d="M646.285 926.345C662.775 925.905 679.359 929.166 694.465 935.817C702.465 939.337 710.177 943.897 716.07 950.367C721.964 956.838 725.91 965.408 725.535 974.165C725.152 982.923 719.915 991.637 711.785 994.854C711.785 985.974 705.444 978.126 697.834 973.588C690.223 969.051 681.401 967.146 672.845 964.867C664.29 962.587 655.561 959.695 649.026 953.7C642.49 947.705 638.753 937.823 642.274 929.678" fill="#240C3D"/>
<path d="M642.577 932.022L640.709 933.58L638.79 935.182C629.758 935.42 620.705 934.489 611.904 932.448C605.484 930.947 599.201 928.87 593.163 926.208C591.424 925.443 589.693 924.621 587.998 923.734C584.333 921.836 580.813 919.643 577.624 917.046C575.879 915.632 574.227 914.103 572.705 912.43C567.121 906.305 563.385 898.19 563.745 889.901C563.861 887.232 564.452 884.563 565.469 882.074C567.583 876.837 571.543 872.372 576.759 870.309C576.759 872.206 577.069 874.053 577.624 875.82C579.305 881.18 583.266 885.861 587.998 889.173C588.64 889.62 589.296 890.045 589.967 890.449C596.662 894.446 604.351 896.278 611.904 898.255C612.481 898.406 613.058 898.558 613.636 898.709C621.729 900.873 630.004 903.607 636.186 909.284C642.368 914.954 645.917 924.311 642.577 932.022Z" fill="#240C3D"/>
<path d="M818.606 872.322C802.606 872.322 785.848 870.352 768.521 866.421C766.746 866.017 764.964 865.599 763.19 865.173C756.416 863.564 749.419 861.905 742.443 861.357C732.647 860.592 724.077 862.302 717.657 866.291L715.745 863.225C722.822 858.818 732.149 856.928 742.725 857.757C749.974 858.32 757.116 860.015 764.02 861.66C765.787 862.078 767.547 862.497 769.314 862.901C795.507 868.838 820.352 870.23 843.162 867.041C848.932 866.233 855.006 865.079 860.301 862.143C865.777 859.106 869.614 854.28 870.559 849.238L874.108 849.901C872.947 856.076 868.554 861.689 862.047 865.296C856.24 868.52 849.776 869.754 843.659 870.612C835.544 871.745 827.183 872.315 818.599 872.315L818.606 872.322Z" fill="#240C3D"/>
<path d="M715.089 837.069C706.966 831.558 699.406 827.237 690.201 823.832C694.248 832.078 698.576 841.643 704.456 848.691C718.919 866.018 729.559 863.688 731.117 861.488C732.452 859.598 728.073 845.877 715.081 837.069H715.089Z" fill="#FFDFE0"/>
<path d="M742.833 835.648C743.482 825.83 743.396 817.109 741.693 807.421C736.636 815.082 730.577 823.652 727.468 832.294C719.836 853.56 727.201 861.603 729.884 861.841C732.186 862.043 741.794 851.338 742.833 835.648Z" fill="#FFDFE0"/>
<path d="M751.042 865.98C760.672 864.112 769.062 861.811 777.971 857.692C769.3 854.734 759.489 851.033 750.364 850.225C727.914 848.227 722.035 857.425 722.49 860.087C722.879 862.373 735.648 868.967 751.042 865.98Z" fill="#FFDFE0"/>
<path d="M732.424 886.66C738.88 894.061 745.099 900.172 753.128 905.813C751.31 896.81 749.55 886.451 745.647 878.134C736.053 857.683 725.174 857.221 723.111 858.952C721.337 860.438 722.094 874.822 732.424 886.66Z" fill="#FFDFE0"/>
<path d="M418.583 629.937C414.529 626.222 410.857 623.639 407.596 621.886C411.246 620.819 415.149 619.138 418.943 616.635C427.138 611.225 434.02 605.886 440.686 598.68C431.546 599.257 421.071 599.596 412.328 602.33C408.195 603.621 404.797 605.064 401.991 606.572C402.128 602.135 401.594 597.021 399.82 591.733C396.689 582.413 393.291 574.377 388.04 566.074C386.272 575.091 383.928 585.334 384.346 594.51C384.599 600.014 385.371 604.444 386.438 607.993C383.098 606.161 379.16 604.581 374.709 603.657C365.1 601.674 356.472 600.57 346.669 600.931C353.544 607.004 361.183 614.197 369.298 618.46C379.095 623.611 386.236 624.729 391.041 624.224C393.01 629.086 399.106 637.656 409.587 642.878C418.373 647.25 426.438 650.525 436.011 652.667C430.904 645.043 425.342 636.134 418.575 629.937H418.583Z" fill="#FFDFE0"/>
<path d="M790.986 719.274C785.77 721.006 781.73 722.953 778.614 724.944C779.473 721.222 779.92 716.995 779.602 712.443C778.91 702.632 777.633 693.997 774.625 684.634C770.657 692.915 765.824 702.236 763.927 711.231C763.032 715.48 762.621 719.159 762.556 722.347C758.769 720.053 754.058 718.019 748.59 716.988C738.953 715.163 730.304 714.203 720.515 714.737C727.49 720.696 735.252 727.751 743.433 731.877C748.338 734.351 752.572 735.837 756.179 736.638C752.955 738.658 749.651 741.334 746.672 744.775C740.244 752.205 735.065 759.217 730.585 767.967C739.227 764.923 749.218 761.763 756.893 756.75C766.163 750.697 770.628 744.999 772.54 740.548C777.734 741.204 788.165 740.064 797.831 733.449C805.932 727.902 812.721 722.448 819.271 715.126C810.138 715.862 799.678 716.374 790.978 719.26L790.986 719.274Z" fill="#FFDFE0"/>
<path d="M594.548 611.733C589.073 612.166 584.687 613.089 581.181 614.279C582.898 610.874 584.341 606.871 585.113 602.377C586.772 592.681 587.587 583.996 586.895 574.178C581.073 581.269 574.155 589.168 570.18 597.443C568.298 601.352 567.028 604.829 566.206 607.91C563.075 604.779 558.985 601.677 553.921 599.361C544.997 595.286 536.824 592.285 527.186 590.452C532.539 597.904 538.396 606.618 545.365 612.584C549.542 616.162 553.293 618.615 556.611 620.26C552.997 621.45 549.152 623.253 545.444 625.886C537.437 631.564 530.736 637.133 524.308 644.555C533.426 643.668 543.879 642.99 552.528 639.96C562.966 636.303 568.658 631.838 571.58 627.978C576.471 629.861 586.866 631.253 597.83 627.141C607.014 623.693 614.906 620.022 623.014 614.481C613.975 613.01 603.688 610.997 594.555 611.719L594.548 611.733Z" fill="#FFDFE0"/>
<path d="M434.699 698.973H432.982L383.229 671.503L384.549 638.06L433.848 666.626C435.197 664.571 436.639 662.796 438.176 661.353C439.323 674.237 438.385 686.803 434.699 698.98V698.973Z" fill="#FFD1E3"/>
<path d="M434.698 667.115C438.19 677.156 437.555 687.883 434.698 698.964L593.48 685.027C591.013 673.225 590.89 661.661 593.48 650.386L434.698 667.108V667.115Z" fill="#422265"/>
<path d="M384.556 638.048L530.165 624.717L593.48 650.391L434.699 667.12L384.556 638.048Z" fill="#240C3D"/>
<path d="M432.982 674.032C432.881 674.032 432.78 674.01 432.694 673.952L386.843 648.271C386.554 648.113 386.453 647.745 386.612 647.463C386.771 647.175 387.139 647.074 387.42 647.233L433.271 672.914C433.559 673.072 433.66 673.44 433.501 673.722C433.393 673.916 433.191 674.024 432.982 674.024V674.032Z" fill="#3A0A6C"/>
<path d="M432.253 679.419C432.152 679.419 432.052 679.397 431.965 679.34L386.114 653.659C385.826 653.5 385.725 653.132 385.884 652.851C386.042 652.569 386.41 652.461 386.692 652.62L432.542 678.301C432.831 678.459 432.932 678.827 432.773 679.109C432.665 679.303 432.463 679.412 432.253 679.412V679.419Z" fill="#3A0A6C"/>
<path d="M431.532 684.819C431.431 684.819 431.33 684.797 431.244 684.739L385.393 659.059C385.105 658.9 385.004 658.532 385.162 658.251C385.321 657.962 385.689 657.861 385.97 658.02L431.821 683.701C432.109 683.859 432.21 684.227 432.052 684.509C431.943 684.703 431.741 684.812 431.532 684.812V684.819Z" fill="#3A0A6C"/>
<path d="M430.811 690.203C430.71 690.203 430.609 690.181 430.522 690.123L384.672 664.443C384.383 664.284 384.282 663.916 384.441 663.635C384.599 663.346 384.967 663.245 385.249 663.404L431.099 689.085C431.388 689.243 431.489 689.611 431.33 689.9C431.222 690.095 431.02 690.203 430.811 690.203Z" fill="#3A0A6C"/>
<g opacity="0.25">
<path d="M500.327 698.667C496.273 694.952 492.601 692.37 489.341 690.617C492.991 689.549 496.894 687.868 500.688 685.365C508.883 679.955 515.765 674.617 522.43 667.41C513.29 667.987 502.816 668.326 494.073 671.06C489.94 672.351 486.542 673.794 483.736 675.302C483.873 670.865 483.339 665.751 481.564 660.463C478.434 651.143 475.036 643.107 469.784 634.804C468.017 643.821 465.673 654.065 466.091 663.241C466.343 668.745 467.115 673.174 468.183 676.723C464.843 674.891 460.904 673.311 456.453 672.388C446.845 670.404 438.217 669.3 428.414 669.661C435.288 675.735 442.928 682.927 451.043 687.19C460.839 692.341 467.981 693.459 472.785 692.954C474.755 697.816 480.85 706.386 491.332 711.609C500.118 715.98 508.183 719.255 517.756 721.398C512.648 713.773 507.087 704.864 500.32 698.667H500.327Z" fill="#1C0930"/>
</g>
<g opacity="0.25">
<path d="M404.401 818.122C404.401 820.214 404.098 822.32 403.513 824.318C403.059 825.884 402.453 827.377 401.717 828.82C399.553 833.047 396.292 836.719 392.556 839.727C392.166 840.044 391.762 840.355 391.358 840.658C387.521 843.521 383.243 845.794 378.72 847.359C376.195 848.239 373.591 848.903 370.943 849.336C365.562 850.208 360.173 850.129 354.813 849.422V844.409C359.834 844.993 364.877 845.007 369.912 844.185C377.277 843.002 384.347 839.987 390.327 835.514C395.852 831.381 400.541 825.812 402.482 819.175C403.066 817.177 403.369 815.07 403.369 812.978C403.369 812.437 403.355 811.889 403.311 811.348C403.723 812.553 404.018 813.808 404.191 815.092C404.336 816.088 404.401 817.112 404.401 818.122Z" fill="#1C0930"/>
</g>
<path d="M403.369 812.971C403.369 815.063 403.066 817.169 402.481 819.168C400.541 825.804 395.852 831.373 390.326 835.507C384.346 839.979 377.277 842.987 369.911 844.178C364.876 845 359.834 844.986 354.813 844.401V829.036C362.214 825.573 369.031 820.863 374.831 815.092C376.05 813.902 377.219 812.646 378.344 811.348C378.755 810.872 379.166 810.396 379.563 809.898C380.422 808.845 381.302 807.734 382.232 806.681C383.459 805.267 384.779 803.939 386.243 802.937C387.679 801.956 389.259 801.278 391.04 801.155C393.19 800.996 395.296 801.725 397.114 802.937C397.98 803.499 398.781 804.185 399.488 804.928C400.014 805.476 400.498 806.06 400.93 806.681C401.962 808.109 402.748 809.682 403.311 811.348C403.354 811.882 403.369 812.43 403.369 812.978V812.971Z" fill="#250C3D"/>
<path d="M300.921 830.949C286.039 835.126 270.378 835.227 254.983 836.598C251.557 836.901 247.294 838.004 246.709 841.409C246.262 844.006 248.361 846.3 250.41 847.952C265.819 860.403 288.65 862.748 306.251 853.68C314.454 849.46 321.314 842.852 326.183 835.025C329.032 830.437 337.444 814.877 332.942 810.08C323.954 820.208 314.143 827.234 300.913 830.942L300.921 830.949Z" fill="#250C3D"/>
<path d="M370.871 1150.77C332.566 1097.99 309.02 1037.9 302.78 976.994C296.173 912.582 309.525 847.896 340.378 794.854C372.754 739.192 424.887 696.545 483.42 677.861L484.74 681.988C427.225 700.354 375.971 742.28 344.13 797.025C313.738 849.281 300.587 913.029 307.094 976.539C313.262 1036.69 336.526 1096.05 374.384 1148.21L370.878 1150.76L370.871 1150.77Z" fill="#240C3D"/>
<path d="M498.714 692.232C494.659 688.517 490.988 685.934 487.727 684.181C491.377 683.113 495.28 681.433 499.074 678.929C507.269 673.519 514.151 668.181 520.816 660.975C511.677 661.552 501.202 661.891 492.459 664.625C488.326 665.916 484.928 667.359 482.122 668.866C482.259 664.43 481.725 659.315 479.951 654.028C476.82 644.708 473.422 636.671 468.17 628.368C466.403 637.386 464.059 647.629 464.477 656.805C464.73 662.309 465.501 666.738 466.569 670.287C463.229 668.455 459.29 666.875 454.84 665.952C445.231 663.968 436.603 662.865 426.8 663.225C433.674 669.299 441.314 676.491 449.429 680.755C459.225 685.905 466.367 687.023 471.172 686.518C473.141 691.38 479.236 699.95 489.718 705.173C498.504 709.545 506.569 712.82 516.142 714.962C511.035 707.337 505.473 698.428 498.706 692.232H498.714Z" fill="#FFDFE0"/>
<path d="M403.369 812.976C403.369 815.068 403.066 817.174 402.482 819.172C400.541 825.809 395.852 831.378 390.327 835.511C384.346 839.984 377.277 842.992 369.912 844.182C364.876 845.005 359.834 844.99 354.813 844.406C344.108 843.158 333.518 839.32 323.311 835.504C323.21 835.468 323.102 835.425 323.001 835.389L321.507 830.656C343.112 831.371 364.819 821.517 378.532 804.759C381.677 800.914 385.068 796.37 390.016 796.009C393.183 795.785 396.256 797.48 398.464 799.782C401.421 802.884 403.008 807.053 403.311 811.352C403.355 811.886 403.369 812.435 403.369 812.983V812.976Z" fill="#250C3D"/>
<path d="M200.359 1124.05C173.135 1083.39 152.828 1038.81 139.995 991.553C135.299 974.261 130.92 953.89 134.007 933.937C136.301 919.156 142.534 905.392 148.557 892.075C151.666 885.215 154.877 878.124 157.488 871.011C164.305 852.436 166.585 833.024 163.894 816.331C162.321 806.585 155.959 798.434 146.855 794.517C137.795 790.621 127.544 791.602 119.443 797.135L119.118 797.359C108.348 804.832 101.372 817.629 100.918 830.758L96.5825 830.607C97.0875 816.143 104.777 802.041 116.644 793.802L117.004 793.557C126.339 787.18 138.141 786.048 148.572 790.535C159.039 795.036 166.368 804.421 168.179 815.638C171.771 837.951 166.563 858.878 161.564 872.497C158.902 879.754 155.656 886.925 152.518 893.857C146.61 906.907 140.5 920.404 138.299 934.593C135.327 953.745 139.605 973.554 144.186 990.406C156.897 1037.21 177.008 1081.36 203.966 1121.62L200.367 1124.03L200.359 1124.05Z" fill="#240C3D"/>
<path d="M72.8641 818.118C77.0409 821.696 80.7993 824.149 84.1104 825.794C80.4963 826.984 76.6514 828.795 72.9435 831.428C64.9363 837.105 58.2347 842.674 51.8145 850.111C60.9326 849.224 71.3852 848.539 80.0345 845.509C84.1175 844.073 87.472 842.522 90.2204 840.921C90.2276 845.357 90.9345 850.45 92.8822 855.673C96.3232 864.885 99.9878 872.798 105.513 880.921C106.978 871.853 108.976 861.538 108.255 852.376C107.822 846.887 106.899 842.486 105.708 838.973C109.106 840.69 113.095 842.14 117.575 842.912C127.241 844.571 135.905 845.386 145.687 844.694C138.617 838.858 130.74 831.925 122.487 827.936C112.525 823.117 105.355 822.244 100.565 822.908C98.4297 818.111 92.0599 809.757 81.4052 804.888C72.4818 800.812 64.3086 797.819 54.6711 795.994C60.0309 803.445 65.8884 812.16 72.8569 818.118H72.8641Z" fill="#1C0838"/>
<path d="M153.737 898.937C129.398 915.925 108.961 938.504 94.4471 964.437C92.6797 945.739 95.7096 925.974 106.451 910.594C117.192 895.207 136.59 885.223 154.942 888.967" fill="#250C3D"/>
<path d="M145.701 909.64C156.752 914.055 166.996 927.883 171.519 938.92C176.042 949.957 177.535 961.968 178.985 973.813C181.589 962.495 184.201 951.09 184.561 939.476C184.922 927.869 182.895 915.901 176.799 906.019C170.704 896.136 160.128 888.655 148.557 888.179" fill="#250C3D"/>
<path d="M425.32 569.355C418.12 562.531 416.634 550.57 421.85 541.524C421.907 541.423 421.965 541.322 422.023 541.221C421.749 540.572 421.496 539.908 421.265 539.238C417.457 527.999 420.421 514.761 428.818 505.513C432.036 501.971 435.974 499.071 440.353 496.922C440.728 492.853 442.416 488.814 445.229 485.38C449.089 480.676 454.485 477.849 460.039 477.625L460.212 481.953C455.899 482.126 451.657 484.377 448.584 488.128C446.874 490.206 445.691 492.55 445.078 494.952C450.084 493.221 455.495 492.399 460.963 492.622C467.722 492.896 475.556 495.703 477.295 502.765C479.004 509.712 473.046 516.37 466.416 518.224C461.064 519.717 455.062 518.693 449.947 515.403C444.869 512.143 441.449 507.165 440.526 501.719C437.33 503.508 434.445 505.766 432.028 508.428C424.981 516.197 422.254 527.609 425.125 537.088C430.434 531.367 438.434 528.027 446.773 528.302C452.472 528.489 457.558 530.365 461.107 533.575C465.406 537.47 467.296 543.479 465.803 548.529C463.632 555.865 455.538 559.321 448.93 559.422C439.307 559.566 429.944 554.163 424.526 545.896C421.705 552.828 423.177 561.348 428.306 566.202L425.327 569.348L425.32 569.355ZM427 541.596C431.35 549.734 439.992 555.23 448.865 555.086C453.936 555.007 460.104 552.532 461.655 547.295C462.687 543.804 461.302 539.584 458.207 536.778C455.422 534.253 451.311 532.781 446.636 532.623C438.932 532.37 431.357 535.898 427 541.589V541.596ZM444.652 499.735C444.681 500.103 444.725 500.471 444.782 500.832C445.46 505.131 448.194 509.113 452.292 511.746C456.367 514.365 461.092 515.201 465.255 514.04C469.836 512.756 474.185 508.233 473.096 503.789C471.935 499.057 465.745 497.145 460.797 496.943C455.184 496.713 449.644 497.701 444.652 499.728V499.735Z" fill="#FFDFE0"/>
<path d="M760.241 568.241C759.931 568.241 759.628 568.234 759.317 568.22L759.541 563.891C763.862 564.115 768.277 562.261 771.689 558.813C773.579 556.901 774.978 554.679 775.801 552.342C770.657 553.604 765.196 553.929 759.765 553.201C753.063 552.306 745.517 548.786 744.435 541.601C743.368 534.524 749.911 528.443 756.684 527.209C762.145 526.214 768.032 527.787 772.829 531.53C777.583 535.246 780.54 540.519 780.959 546.023C784.306 544.537 787.386 542.553 790.033 540.122C797.766 533.038 801.518 521.915 799.527 512.212C793.72 517.42 785.453 520.01 777.164 518.971C771.509 518.257 766.61 515.927 763.371 512.407C759.447 508.136 758.12 501.976 760.068 497.085C762.895 489.979 771.278 487.281 777.871 487.786C787.458 488.515 796.295 494.769 800.941 503.498C804.382 496.854 803.696 488.241 799.036 482.924L802.297 480.068C808.84 487.519 809.229 499.574 803.206 508.1C803.141 508.194 803.069 508.288 803.004 508.382C803.22 509.052 803.408 509.738 803.574 510.43C806.336 521.972 802.174 534.885 792.969 543.318C789.442 546.549 785.258 549.074 780.699 550.813C779.949 554.831 777.907 558.697 774.784 561.857C770.744 565.947 765.492 568.241 760.248 568.241H760.241ZM759.959 531.249C759.123 531.249 758.286 531.321 757.463 531.473C752.782 532.331 748.042 536.436 748.72 540.959C749.449 545.778 755.436 548.252 760.342 548.908C765.911 549.651 771.516 549.175 776.674 547.617C776.674 547.249 776.674 546.881 776.645 546.513C776.363 542.163 774.005 537.951 770.16 534.95C767.079 532.54 763.465 531.249 759.952 531.249H759.959ZM776.248 492.057C771.451 492.057 765.947 494.033 764.093 498.686C762.744 502.07 763.739 506.398 766.56 509.471C769.106 512.241 773.06 514.088 777.698 514.672C785.345 515.639 793.207 512.811 798.07 507.552C794.484 499.047 786.376 492.778 777.532 492.107C777.114 492.079 776.681 492.057 776.241 492.057H776.248Z" fill="#FFDFE0"/>
<path d="M216.446 951.551C233.968 943.068 248.519 928.547 257.067 911.01C256.201 918.988 256.244 927.075 254.809 934.974C253.373 942.873 250.257 950.801 244.241 956.089C237.467 962.04 227.959 963.851 218.949 963.743" fill="#240C3D"/>
<path d="M224.433 874.715C216.549 870.617 212.949 861.225 211.751 852.403C210.554 843.58 211.066 834.448 208.354 825.964C201.825 835.342 199.055 847.281 200.787 858.585C202.518 869.889 212.054 882.628 221.093 889.604" fill="#240C3D"/>
<path d="M767.959 914.126C777.142 908.622 784.341 899.857 787.963 889.765C789.579 896.936 791.028 904.445 789.196 911.558C787.364 918.671 781.261 925.221 773.939 925.091" fill="#240C3D"/>
<path d="M778.996 952.97C769.704 949.933 761.459 943.772 755.904 935.714C754.498 943.065 756.142 950.957 760.363 957.132C764.583 963.307 771.335 967.686 778.678 969.013" fill="#240C3D"/>
<path d="M930.562 1154.07C921.826 1160.55 910.473 1162.72 899.487 1163.21C876.602 1164.23 852.67 1158.97 831.318 1167.04C814.05 1173.57 801.253 1187.9 790.91 1202.81C776.685 1223.3 765.415 1247.26 767.636 1271.87C767.868 1274.49 768.287 1277.07 768.885 1279.61H634.611C633.766 1278.34 632.883 1277.11 631.971 1275.89C615.712 1254.37 588.699 1240.88 561.192 1240.56C537.057 1240.27 513.238 1249.46 489.276 1246.71C445.158 1241.66 416.178 1199.26 375.344 1182.3C339.288 1167.32 297.901 1173.64 259.759 1182.49C221.61 1191.35 182.57 1202.56 143.838 1196.58C112.225 1191.7 83.9476 1175.92 56.7771 1160.36C34.3258 1147.49 11.7847 1133.83 -13 1125.55V1096.31C-6.11951 1097.22 0.6788 1098.8 7.29005 1101.09C34.7522 1110.58 58.8788 1130.35 87.9339 1132.6C135.29 1136.28 174.089 1092.61 221.445 1089.04C273.168 1085.14 317.136 1129.49 368.934 1132.26C418.534 1134.91 463.287 1099.01 512.961 1099.29C546.526 1099.48 577.249 1116.09 608.039 1129.05C638.829 1142 674.832 1151.49 705.241 1137.69C731.962 1125.57 751.908 1096.55 781.405 1096.86C799.593 1097.05 816.144 1108.99 834.317 1108.49C868.772 1107.55 884.477 1066.69 912.052 1046.63C916.569 1043.35 921.505 1040.67 926.71 1038.59C926.919 1040.81 927.233 1043.01 927.652 1045.17C931.339 1064.22 940.815 1081.83 944.966 1100.79C949.109 1119.76 946.439 1142.29 930.562 1154.07V1154.07Z" fill="#30213F"/>
<path d="M645.354 1279.14H20.6948V1125.46C44.6012 1133.73 66.3434 1147.35 87.9991 1160.19C114.207 1175.71 141.482 1191.45 171.974 1196.32C226.562 1178.82 248.194 1176.7 284.991 1167.86C321.781 1159.03 367.073 1163.88 401.85 1178.82C441.237 1195.74 456.436 1235.14 498.99 1240.19C522.102 1242.93 558.973 1231.85 582.252 1232.13C608.784 1232.46 627.125 1253.96 642.808 1275.43C643.688 1276.64 644.539 1277.88 645.354 1279.14Z" fill="#423B5C"/>
<path d="M975.206 1035.7V1275.49H768.51C767.933 1272.96 767.529 1270.39 767.306 1267.78C765.163 1243.23 776.034 1219.33 789.755 1198.88C799.731 1184.02 812.074 1169.72 828.731 1163.21C849.326 1155.16 872.41 1160.41 894.484 1159.38C905.081 1158.89 916.031 1156.73 924.457 1150.26C939.772 1138.51 942.347 1116.04 938.351 1097.11C934.347 1078.2 925.207 1060.63 921.651 1041.63C921.247 1039.48 920.944 1037.28 920.742 1035.06C937.968 1027.95 958.203 1028 975.206 1035.7V1035.7Z" fill="#423B5C"/>
<path d="M141.799 1194.68C145.968 1183.08 148.868 1172.54 150.159 1160.29C141.424 1167.76 131.173 1175.98 124.457 1185.32C107.93 1208.29 114.04 1220.53 117.185 1221.75C119.89 1222.79 135.148 1213.23 141.806 1194.69L141.799 1194.68Z" fill="#FFDFE0"/>
<path d="M413.635 1199.28C409.43 1210.86 406.494 1221.39 405.159 1233.64C413.917 1226.2 424.196 1218.01 430.948 1208.7C447.554 1185.79 441.488 1173.52 438.35 1172.3C435.652 1171.24 420.359 1180.76 413.635 1199.28Z" fill="#FFDFE0"/>
<path d="M672.5 1279.14H650.368C649.531 1277.23 648.73 1275.14 647.98 1272.83C644.821 1263.11 644.633 1251.2 644.114 1240.84C652.785 1247.78 659.169 1255.14 665.603 1263.99C669.254 1269.01 671.382 1274.31 672.5 1279.14Z" fill="#FFDFE0"/>
<path d="M570.244 1187.6C565.094 1176.4 559.784 1166.86 552.116 1157.22C551.128 1168.69 549.584 1181.77 551.33 1193.15C555.636 1221.14 568.556 1225.56 571.644 1224.21C574.298 1223.05 578.468 1205.49 570.237 1187.6H570.244Z" fill="#FFDFE0"/>
<path d="M752.809 1205.16C755.709 1193.18 757.462 1182.39 757.426 1170.06C749.541 1178.43 740.235 1187.71 734.558 1197.73C720.592 1222.35 727.979 1233.86 731.233 1234.73C734.032 1235.48 748.178 1224.32 752.809 1205.16Z" fill="#FFDFE0"/>
<path d="M245.143 1150.87C237.41 1141.29 229.915 1133.35 220.126 1125.89C221.98 1137.25 223.69 1150.31 228.176 1160.91C239.213 1186.98 252.819 1188.07 255.481 1186C257.767 1184.22 257.508 1166.18 245.143 1150.87V1150.87Z" fill="#FFDFE0"/>
<path d="M278.918 1159.33C283.268 1147.8 286.341 1137.31 287.827 1125.07C278.976 1132.4 268.595 1140.46 261.728 1149.69C244.84 1172.39 250.748 1184.72 253.872 1185.99C256.555 1187.08 271.964 1177.76 278.925 1159.33H278.918Z" fill="#FFDFE0"/>
<path d="M185.147 1279.14H163.008C161.384 1276.39 159.769 1273.19 158.203 1269.5C153.716 1258.9 152.007 1245.84 150.153 1234.47C159.942 1241.93 167.437 1249.87 175.17 1259.45C178.755 1263.89 181.323 1268.56 183.105 1272.99C183.956 1275.11 184.627 1277.17 185.147 1279.14Z" fill="#FFDFE0"/>
<path d="M217.853 1233.66C216.367 1245.89 213.302 1256.39 208.945 1267.91C207.35 1272.14 205.309 1275.89 203.08 1279.14H181.085C181.525 1277.26 182.181 1275.21 183.105 1272.99C184.879 1268.7 187.642 1263.79 191.754 1258.27C198.614 1249.04 209.002 1240.98 217.853 1233.66Z" fill="#FFDFE0"/>
</g>
<path d="M64.0589 295.936L72.131 310.962L78.0968 295.936H86.5513L77.1951 317.469C73.4584 326.125 68.178 328.794 63.5468 328.794C60.5386 328.794 57.7541 327.633 55.9073 326.255L58.6558 320.138C60.0264 321.169 61.5773 321.775 63.1211 321.775C65.0544 321.775 66.9443 320.83 68.6179 318.457L55.6548 295.936H64.0661H64.0589Z" fill="white"/>
<path d="M120.975 328.231H113.076V319.272C111.1 320.39 108.654 321.169 105.22 321.169C95.5178 321.169 90.7568 316.863 90.7568 307.175V295.936H98.6992V307.478C98.6992 312.304 101.058 314.41 105.523 314.41C108.957 314.41 111.489 313.422 113.076 312.513V295.936H120.975V328.231Z" fill="white"/>
<path d="M127.244 295.936H153.942V302.825H135.143V308.899H152.146V315.268H135.143V321.342H153.942V328.231H127.244V295.936Z" fill="white"/>
<path d="M183.822 315.528H168.024V328.231H160.125V295.936H168.024V308.639H183.822V295.936H191.721V328.231H183.822V315.528Z" fill="white"/>
<path d="M228.857 328.231H220.958V308.206L205.845 328.231H197.946V295.936H205.845V316.091L220.958 295.936H228.857V328.231Z" fill="white"/>
<path d="M235.076 295.936H261.774V302.825H242.975V308.899H259.978V315.268H242.975V321.342H261.774V328.231H235.076V295.936Z" fill="white"/>
<path d="M282.21 308.982H321.706V315.186H282.21V308.982Z" fill="white"/>
<path d="M375.794 318.154C373.731 325.346 367.635 329.09 358.964 329.09C348.187 329.09 341.363 323.275 341.363 312.08C341.363 300.884 348.144 295.07 358.964 295.07C367.895 295.07 374.12 299.03 376.01 306.698L368.198 308.033C366.993 304.072 363.819 301.959 358.971 301.959C352.703 301.959 349.356 305.659 349.356 312.08C349.356 318.5 352.703 322.2 358.971 322.2C363.61 322.2 366.741 320.217 368.075 316.603L375.801 318.154H375.794Z" fill="white"/>
<path d="M381.457 328.231V295.936H401.374C407.001 295.936 411.719 298.431 411.719 304.159C411.719 307.99 409.655 310.363 406.611 311.481C410.261 312.426 412.707 314.799 412.707 319.315C412.707 325.216 408.242 328.231 402.362 328.231H381.457ZM389.356 302.825V309.028H400.775C402.536 309.028 403.827 307.737 403.827 305.797C403.827 303.856 402.536 302.825 400.775 302.825H389.356ZM389.356 314.836V321.335H401.288C403.307 321.335 404.678 320.39 404.678 318.103C404.678 315.817 403.307 314.828 401.288 314.828H389.356V314.836Z" fill="white"/>
<path d="M417.821 295.936H444.519V302.825H425.713V308.899H442.716V315.268H425.713V321.342H444.519V328.231H417.821V295.936Z" fill="white"/>
<path d="M459.588 302.825H449.157V295.936H477.918V302.825H467.487V328.231H459.588V302.825Z" fill="white"/>
<path d="M55.6831 379.899L67.3621 347.603H79.4668L91.1458 379.899H82.7346L80.7581 373.998H66.0349L64.1015 379.899H55.6903H55.6831ZM68.134 367.671H78.6517L74.3596 354.838H72.4262L68.134 367.671Z" fill="white"/>
<path d="M133.296 367.195H117.498V379.899H109.599V347.603H117.498V360.306H133.296V347.603H141.195V379.899H133.296V367.195Z" fill="white"/>
<path d="M147.421 347.603H174.119V354.492H155.321V360.566H172.323V366.936H155.321V373.01H174.119V379.899H147.421V347.603Z" fill="white"/>
<path d="M186.743 347.603L194.815 362.629L200.781 347.603H209.235L199.879 369.136C196.142 377.792 190.862 380.461 186.231 380.461C183.223 380.461 180.438 379.3 178.591 377.922L181.34 371.805C182.71 372.836 184.261 373.442 185.805 373.442C187.738 373.442 189.628 372.497 191.302 370.124L178.339 347.603H186.75H186.743Z" fill="white"/>
<path d="M243.667 379.899H235.768V370.939C233.792 372.057 231.346 372.836 227.912 372.836C218.21 372.836 213.449 368.53 213.449 358.842V347.603H221.391V359.145C221.391 363.971 223.75 366.077 228.215 366.077C231.649 366.077 234.181 365.089 235.768 364.18V347.603H243.667V379.899Z" fill="white"/>
<path d="M249.929 347.603H276.627V354.492H257.828V360.566H274.831V366.936H257.828V373.01H276.627V379.899H249.929V347.603Z" fill="white"/>
<path d="M306.513 367.195H290.715V379.899H282.816V347.603H290.715V360.306H306.513V347.603H314.412V379.899H306.513V367.195Z" fill="white"/>
<path d="M351.542 379.899H343.643V359.873L328.53 379.899H320.631V347.603H328.53V367.758L343.643 347.603H351.542V379.899Z" fill="white"/>
<path d="M357.767 347.603H384.465V354.492H365.666V360.566H382.669V366.936H365.666V373.01H384.465V379.899H357.767V347.603Z" fill="white"/>
<path d="M404.901 360.649H444.397V366.853H404.901V360.649Z" fill="white"/>
<path d="M66.5048 406.16H56.0737V399.271H84.8348V406.16H74.4038V431.566H66.5048V406.16Z" fill="#1C0838"/>
<path d="M89.5088 431.566V399.271H97.4078V411.584H110.414C116.293 411.584 120.759 415.069 120.759 421.489C120.759 427.909 116.38 431.566 110.414 431.566H89.5088ZM97.4078 418.171V424.67H109.339C111.402 424.67 112.73 423.682 112.73 421.438C112.73 419.195 111.402 418.163 109.339 418.163H97.4078V418.171Z" fill="#1C0838"/>
<path d="M125.873 399.271H137.639L145.105 420.804L152.571 399.271H164.337V431.566H156.438V409.521L148.971 431.566H141.246L133.779 409.521V431.566H125.88V399.271H125.873Z" fill="#1C0838"/>
<path d="M168.629 431.566L180.308 399.271H192.413L204.092 431.566H195.68L193.704 425.666H178.981L177.047 431.566H168.636H168.629ZM181.073 419.332H191.59L187.298 406.499H185.365L181.073 419.332Z" fill="#1C0838"/>
<path d="M472.147 333.64C471.829 336.655 471.757 339.339 472.168 342.34C473.813 340.046 475.782 337.478 476.835 334.852C479.432 328.396 477.261 325.835 476.439 325.734C475.732 325.647 472.651 328.828 472.147 333.64Z" fill="white"/>
<path d="M127.033 759.525C116.342 759.59 105.694 763.182 97.1604 769.617C94.7294 771.449 92.4643 773.469 90.4012 775.713C88.8286 777.422 91.3751 779.983 92.9549 778.266C99.7358 770.887 108.811 765.873 118.643 763.954C121.413 763.413 124.212 763.153 127.033 763.139C129.355 763.125 129.363 759.511 127.033 759.525Z" fill="#1C0838"/>
<path d="M303.146 674.842C305.548 675.26 307.957 675.686 310.36 676.104C310.85 676.191 311.305 676.183 311.752 675.924C312.127 675.707 312.481 675.274 312.582 674.849C312.784 673.969 312.315 672.807 311.319 672.627C308.917 672.209 306.508 671.783 304.105 671.365C303.615 671.278 303.16 671.285 302.713 671.545C302.338 671.761 301.985 672.194 301.884 672.62C301.682 673.5 302.15 674.661 303.146 674.842Z" fill="#C67DFF"/>
<path d="M299.323 683.176C302.151 683.746 304.972 684.316 307.799 684.878C308.723 685.066 309.79 684.611 310.021 683.616C310.223 682.721 309.747 681.596 308.759 681.394C305.931 680.824 303.11 680.254 300.283 679.692C299.359 679.504 298.292 679.958 298.061 680.954C297.859 681.848 298.335 682.974 299.323 683.176Z" fill="#C67DFF"/>
<path d="M268.124 750.981C270.778 752.243 273.44 753.505 276.095 754.761C276.946 755.165 278.079 755.028 278.562 754.111C278.988 753.311 278.822 752.077 277.913 751.644C275.258 750.382 272.596 749.12 269.942 747.864C269.09 747.46 267.958 747.597 267.475 748.514C267.049 749.314 267.215 750.548 268.124 750.981Z" fill="#C67DFF"/>
<path d="M263.911 758.442C266.731 759.805 269.545 761.169 272.365 762.532C273.217 762.943 274.356 762.792 274.833 761.883C275.258 761.075 275.092 759.856 274.183 759.416C271.363 758.052 268.549 756.689 265.729 755.326C264.877 754.914 263.738 755.066 263.262 755.975C262.836 756.783 263.002 758.002 263.911 758.442Z" fill="#C67DFF"/>
<path d="M310.095 665.675L264.683 768.932L265.343 769.222L310.755 665.966L310.095 665.675Z" fill="#C67DFF"/>
<path d="M838.326 797.848C827.635 797.913 816.987 801.506 808.454 807.94C806.023 809.772 803.757 811.792 801.694 814.036C800.122 815.746 802.668 818.306 804.248 816.59C811.029 809.21 820.104 804.196 829.936 802.277C832.706 801.736 835.505 801.477 838.326 801.462C840.648 801.448 840.656 797.834 838.326 797.848Z" fill="#2D2D2D"/>
</g>
</g>
<defs>
<clipPath id="clip0_101_966">
<rect width="948" height="1267" fill="white"/>
</clipPath>
<clipPath id="clip1_101_966">
<rect width="961.167" height="1279.61" fill="white" transform="translate(-13)"/>
</clipPath>
</defs>
</svg>
