<svg width="307" height="60" viewBox="0 0 307 60" fill="none" xmlns="http://www.w3.org/2000/svg">
<path d="M24.0426 27.8871C29.2335 23.5098 29.586 16.6267 28.8863 10.3185C28.7833 9.21738 28.5012 8.25189 27.693 7.4437C26.9879 6.73857 25.8271 6.20701 24.8183 6.2504C22.7842 6.34261 20.5332 8.0512 20.7502 10.3185C20.9997 13.3993 21.4553 16.6267 20.3217 19.5882C18.5426 23.7214 13.2758 23.8841 9.39758 23.6346C9.08841 19.675 8.56227 15.7317 7.93308 11.8101C7.04353 8.38207 2.26491 7.74745 0.49666 10.8392C-0.599005 12.8895 0.436995 15.2056 0.594293 17.3698C2.20525 29.7855 2.19982 42.4128 0.518356 54.8177C0.388178 55.7723 1.06619 57.0524 1.71165 57.6924C4.3803 60.2255 8.46464 58.4843 8.65448 54.8177C9.60912 47.6904 10.0214 40.4981 9.90202 33.3112C14.8271 32.785 21.8404 33.2352 22.5835 39.397C22.8222 41.8704 22.5564 44.3492 22.2906 46.8063C21.9652 49.8383 21.6397 52.8704 21.3143 55.9025C21.2112 56.8734 21.8459 58.1155 22.5076 58.7772C24.0046 60.3285 26.7655 60.3611 28.2625 58.7772C29.0328 57.9365 29.3311 57.0307 29.4558 55.9025C29.803 52.6968 30.1447 49.4858 30.4918 46.2801C31.3814 38.9902 30.7197 32.1396 24.0589 27.8871H24.0426ZM20.1915 35.0252C20.2186 35.0523 20.2458 35.074 20.2783 35.1011C20.0993 34.9492 19.9312 34.7919 20.1915 35.0252Z" fill="#CC66FF"/>
<path d="M51.8427 6.99967C47.0424 5.92028 41.7376 7.02679 38.2445 10.6392C37.7075 11.1925 37.3496 11.903 37.1814 12.6516C37.0241 13.0746 36.9373 13.5357 36.9482 14.0239C37.1489 24.9154 37.3441 35.807 37.5448 46.6985C37.5991 49.7577 37.6587 52.8169 37.713 55.8815C37.7509 58.0078 39.5572 60.0472 41.781 59.9496C43.9507 59.8519 45.8925 58.1596 45.8491 55.8815C45.7515 50.5334 45.6538 45.1906 45.5562 39.8425C54.072 40.6127 62.9458 37.2118 64.4266 27.877C65.8423 19.1713 60.8467 9.08252 51.8427 6.99425V6.99967ZM54.5656 30.0086C54.6307 29.9544 54.6795 29.9219 54.6849 29.9219C54.6849 29.9219 54.6361 29.9598 54.5656 30.0086ZM56.4749 26.3365C55.8186 31.6684 49.6839 32.1295 45.4043 31.7172C45.3067 26.3148 45.2091 20.9125 45.1114 15.5101C47.4221 14.1757 50.4596 14.5825 52.5695 16.1284C52.5207 16.085 52.4719 16.0416 52.4122 15.9928C52.5207 16.0904 52.9438 16.4213 52.9384 16.443C53.356 16.8173 53.752 17.2186 54.1154 17.6472C54.0883 17.6038 54.0557 17.5549 54.0232 17.5007C55.9433 20.0012 56.8166 23.2014 56.4749 26.3311V26.3365Z" fill="#CC66FF"/>
<path d="M95.8649 50.8361C90.2998 51.1669 84.7401 51.4002 79.175 51.7961C79.1966 46.9633 79.1207 42.1304 79.1044 37.2976C84.0078 37.2053 88.9112 37.1186 93.8146 37.0263C95.9408 36.9884 97.9803 35.1822 97.8826 32.9583C97.785 30.7887 96.0927 28.8468 93.8146 28.8902C88.8949 28.9824 83.9753 29.0692 79.0556 29.1614C79.0285 24.6594 79.0014 20.1574 78.9688 15.6555C83.8668 15.3571 88.7647 15.0588 93.6627 14.7605C95.7835 14.6303 97.8338 12.9814 97.7307 10.6924C97.6385 8.59872 95.9354 6.48333 93.6627 6.62436C87.4521 7.00404 81.2361 7.37831 75.0255 7.75799C72.7962 7.83393 70.7839 9.48827 70.8056 11.8478C70.887 24.9632 70.9683 38.0786 71.0551 51.1941C70.9846 54.2641 71.1148 57.3884 74.1197 59.0861C76.2297 60.3174 78.8061 59.916 81.1168 59.7858C86.031 59.5146 90.9506 59.2434 95.8649 58.9722C97.9857 58.8529 100.036 57.1822 99.9329 54.9041C99.8407 52.7996 98.143 50.7113 95.8649 50.8361Z" fill="#CC66FF"/>
<path d="M134.24 11.8978C132.461 7.96532 129.147 4.9224 124.753 4.45051C116.422 3.8864 113.591 13.2918 111.757 19.7464C108.215 31.4462 106.328 43.6612 106.078 55.8817C106.035 58.0079 107.977 60.0474 110.146 59.9497C112.386 59.8521 114.171 58.1652 114.214 55.8817C114.334 50.2515 114.778 44.6267 115.663 39.067C121.179 39.4359 126.695 39.7993 132.217 40.1681C132.369 44.4477 132.179 48.7327 131.637 52.9852C131.436 54.5148 130.975 56.0769 131.843 57.4981C132.895 59.3802 135.564 60.1125 137.408 58.9571C138.243 58.4201 139.111 57.5523 139.279 56.5271C141.666 41.6109 140.261 25.8322 134.246 11.9032L134.24 11.8978ZM123.397 12.8416C123.327 12.9012 123.267 12.9446 123.262 12.9338C123.262 12.9338 123.327 12.885 123.397 12.8416ZM117.203 31.0285C117.941 27.709 118.819 24.422 119.828 21.173C120.561 18.922 121.168 16.5896 122.258 14.4796C122.595 13.8559 122.98 13.2213 123.544 12.7494C127.596 10.813 131.078 29.0379 131.479 31.9777C126.722 31.6631 121.965 31.3431 117.208 31.0285H117.203Z" fill="#CC66FF"/>
<path d="M177.172 7.89966C168.314 7.92678 159.451 7.94848 150.594 7.9756C148.468 7.98102 146.428 9.84148 146.526 12.0437C146.623 14.2404 148.316 16.1171 150.594 16.1117C153.431 16.1063 156.273 16.0954 159.11 16.09C159.777 29.3519 160.444 42.6192 161.106 55.8811C161.214 58.0019 162.901 60.0522 165.174 59.9492C167.284 59.857 169.356 58.1592 169.242 55.8811C168.575 42.6084 167.908 29.3411 167.24 16.0683C170.549 16.0575 173.858 16.0521 177.166 16.0412C179.293 16.0358 181.332 14.1753 181.235 11.9731C181.137 9.77639 179.445 7.89966 177.166 7.90508L177.172 7.89966Z" fill="#CC66FF"/>
<path d="M222.204 48.9965C221.982 46.9462 221.987 44.8796 221.965 42.8184C221.889 35.5664 221.808 28.3144 221.732 21.057C221.705 18.307 221.672 15.5624 221.645 12.8124C221.624 10.6862 219.79 8.6467 217.577 8.74434C215.294 8.84739 213.607 10.5343 213.509 12.8124C213.298 17.808 213.081 22.8036 212.869 27.7991C212.674 32.3499 212.663 36.9604 212.11 41.4895C211.67 44.2558 210.982 47.0709 209.224 49.3165C209.273 49.246 209.311 49.1809 209.349 49.1266C207.689 51.2312 204.581 52.9235 202.26 50.819C202.466 51.0088 202.9 51.3234 202.46 50.9383C202.135 50.6617 201.837 50.3579 201.554 50.0379C201.5 50.0216 201.218 49.6636 201.115 49.5389C201.153 49.5823 201.175 49.604 201.207 49.6419C199.369 47.0872 198.837 43.9032 198.262 40.8712C196.738 32.1493 195.865 23.3188 195.517 14.4722C195.436 12.3459 193.706 10.301 191.449 10.4041C189.318 10.5017 187.295 12.1941 187.381 14.4722C187.663 21.773 188.352 29.0467 189.361 36.2824C190.43 45.8505 192.822 59.5788 204.885 59.9531C208.975 59.888 212.771 57.6587 215.364 54.5887C217.246 60.5498 225.464 57.4472 222.931 51.7356C222.6 50.8461 222.367 49.9294 222.209 48.9965H222.204Z" fill="#CC66FF"/>
<path d="M259.72 6.51871C251.953 -0.717017 238.588 -1.53063 232.225 7.92355C228.955 12.5666 229.432 17.5025 229.85 22.8289C230.05 26.4685 230.256 30.1081 230.457 33.7476C231.146 41.7373 229.969 51.5983 237.069 57.0874C243.025 61.801 252.132 60.4395 257.095 54.907C264.688 46.8305 262.703 33.0913 253.206 27.4177C256.444 26.3383 259.856 25.1613 262.096 22.4926C266.327 17.3181 264.401 10.6464 259.725 6.52414L259.72 6.51871ZM240.578 10.679C240.524 10.7115 240.47 10.7495 240.41 10.7875C240.54 10.7061 241.002 10.3264 241.034 10.3698C244.782 7.97237 249.875 9.21991 253.282 11.6879C253.244 11.6553 253.211 11.6228 253.168 11.5848C254.676 12.8323 257.529 15.3979 255.744 17.394C255.137 17.8822 254.415 18.2293 253.721 18.5765C248.715 20.5888 243.296 21.8038 237.964 22.5469C237.807 18.1534 236.641 13.8629 240.578 10.6844V10.679ZM241.75 50.4972C241.75 50.4972 241.81 50.5514 241.869 50.6057C241.821 50.5731 241.777 50.5352 241.75 50.4972ZM251.768 48.6584C249.176 52.1461 243.578 53.3177 240.833 49.4015C239.89 47.937 239.564 46.185 239.271 44.4927C238.767 39.9582 238.734 35.3694 238.425 30.824C242.591 31.7027 247.039 32.6086 250.358 35.4128C254.122 38.6022 254.703 44.7368 251.757 48.6584H251.768ZM249.761 34.9029C249.821 34.9463 249.875 34.9843 249.935 35.0277C250.255 35.2555 249.968 35.0657 249.761 34.9029ZM251.725 36.8285C251.725 36.8285 251.736 36.8393 251.741 36.8502C251.926 37.078 251.844 36.9804 251.725 36.8285ZM255.468 17.6218C255.272 17.7683 255.142 17.8442 255.468 17.6218Z" fill="#CC66FF"/>
<path d="M306.127 51.7356C305.026 48.8988 305.237 45.8071 305.167 42.8184C305.14 40.383 305.113 37.953 305.091 35.5176C305.009 27.951 304.928 20.379 304.847 12.8124C304.825 10.6862 302.992 8.6467 300.779 8.74434C298.495 8.84739 296.808 10.5343 296.711 12.8124C296.499 17.808 296.282 22.8036 296.071 27.7991C295.875 32.3499 295.864 36.9604 295.311 41.4895C294.872 44.2558 294.183 47.0709 292.426 49.3165C292.474 49.246 292.512 49.1809 292.55 49.1266C290.891 51.2312 287.783 52.9235 285.461 50.819C285.667 51.0088 286.101 51.3234 285.662 50.9383C285.336 50.6617 285.038 50.3579 284.756 50.0379C284.702 50.0216 284.42 49.6636 284.317 49.5389C284.355 49.5823 284.376 49.604 284.409 49.6419C282.57 47.0872 282.038 43.9032 281.464 40.8712C279.939 32.1493 279.066 23.3188 278.719 14.4722C278.638 12.3459 276.907 10.301 274.651 10.4041C272.519 10.5017 270.496 12.1941 270.583 14.4722C270.865 21.773 271.554 29.0467 272.563 36.2824C273.631 45.8505 276.023 59.5788 288.086 59.9531C292.176 59.888 295.973 57.6587 298.566 54.5887C300.448 60.5498 308.665 57.4472 306.132 51.7356H306.127Z" fill="#CC66FF"/>
<path d="M54.9813 20.017C54.8914 19.9 54.8174 19.7728 54.7169 19.6609C55.0024 20.0933 55.0394 20.1187 54.9813 20.017Z" fill="#CC66FF"/>
<path d="M53.5204 18.4736C53.4199 18.3922 53.3247 18.3057 53.219 18.2345C53.4675 18.4431 53.5627 18.5194 53.5785 18.5295C53.5574 18.5143 53.5415 18.4939 53.5204 18.4736Z" fill="#CC66FF"/>
<path d="M200.275 46.8737C200.328 46.9347 200.391 46.9856 200.444 47.0466C200.455 47.0466 200.37 46.95 200.106 46.6753C200.153 46.7465 200.217 46.8126 200.275 46.8737Z" fill="#CC66FF"/>
<path d="M208.217 45.9463C208.312 45.8039 208.323 45.7632 208.027 46.1956C208.095 46.1193 208.154 46.0277 208.217 45.9463Z" fill="#CC66FF"/>
<path d="M293.745 45.9463C293.84 45.8039 293.851 45.7632 293.555 46.1956C293.623 46.1193 293.681 46.0277 293.745 45.9463Z" fill="#CC66FF"/>
<path d="M255.211 11.312C255.1 11.2256 254.999 11.134 254.883 11.0526C255.322 11.424 255.327 11.4138 255.211 11.312Z" fill="#CC66FF"/>
</svg>
