<svg xmlns="http://www.w3.org/2000/svg" width="150" height="50" viewBox="0,0,150,50"><path d="M12 22 C93 31,96 20,141 8" stroke="#555" fill="none"/><path fill="#222" d="M29.19 32.22L19.87 22.14L19.81 22.08Q20.80 25.93 20.80 29.66L20.65 29.51L20.80 29.66Q20.72 35.56 18.67 41.11L18.62 41.07L18.65 41.10Q17.57 41.35 15.33 42.12L15.42 42.21L15.25 42.04Q18.17 36.36 18.17 29.66L18.12 29.61L18.11 29.59Q18.17 21.02 13.68 13.59L13.69 13.60L13.57 13.48Q14.13 13.78 14.82 14.19L14.81 14.19L14.84 14.22Q26.94 25.44 34.78 34.70L34.73 34.65L34.71 34.62Q34.36 32.14 34.36 29.70L34.44 29.78L34.42 29.76Q34.33 22.44 36.84 16.23L36.84 16.23L36.98 16.37Q39.27 15.81 40.87 15.12L40.85 15.10L40.85 15.10Q37.50 21.23 37.20 28.39L37.27 28.46L37.26 28.45Q37.01 35.86 39.98 42.02L39.86 41.90L39.91 41.96Q39.38 41.91 38.96 41.72L38.93 41.69L38.95 41.71Q34.38 37.76 29.17 32.20L29.22 32.25ZM42.60 45.21L42.57 45.19L42.59 45.20Q42.92 45.23 43.34 45.42L43.33 45.41L44.26 45.85L44.21 45.80Q39.03 38.83 39.03 29.47L39.16 29.60L39.00 29.43Q39.07 22.27 42.38 16.02L42.35 15.99L42.40 16.04Q41.83 16.35 40.42 16.96L40.45 16.99L40.39 16.93Q40.78 16.09 41.61 14.53L41.60 14.52L41.48 14.40Q39.14 15.41 36.70 15.98L36.61 15.89L36.65 15.93Q33.97 22.35 33.97 29.77L34.06 29.86L34.02 29.82Q34.08 31.75 34.27 33.73L34.19 33.65L34.30 33.76Q29.53 27.96 24.78 23.35L24.77 23.35L14.76 13.72L14.65 13.61Q14.22 13.45 13.01 12.88L12.95 12.82L12.86 12.73Q17.87 20.60 17.87 29.70L17.84 29.67L17.76 29.59Q17.78 36.72 14.69 42.74L14.81 42.85L14.76 42.81Q14.98 42.61 16.62 42.00L16.75 42.13L16.73 42.11Q16.33 42.81 15.49 44.30L15.49 44.30L15.61 44.41Q16.79 43.73 20.25 42.93L20.35 43.02L20.33 43.01Q22.57 36.80 22.57 29.60L22.61 29.64L22.63 29.66Q22.65 27.59 22.42 25.46L22.37 25.40L22.52 25.55Q33.86 38.23 42.46 45.08Z"/><path fill="#444" d="M114.66 28.61L114.71 28.66L114.76 28.71Q111.89 28.66 111.13 30.90L111.19 30.96L111.17 30.94Q110.89 31.62 110.78 32.26L110.66 32.15L110.69 32.18Q113.31 32.40 114.95 32.40L115.05 32.50L114.93 32.38Q116.66 32.48 119.25 32.36L119.17 32.28L119.17 32.28Q119.17 30.69 117.77 29.62L117.62 29.47L117.80 29.66Q116.49 28.65 114.70 28.65ZM114.77 41.20L114.68 41.11L114.73 41.17Q110.44 41.10 109.15 39.69L109.25 39.80L109.18 39.72Q108.19 38.25 108.04 34.97L108.08 35.01L108.08 35.00Q108.05 34.75 107.97 33.38L107.98 33.39L108.11 33.51Q107.97 31.21 107.97 30.48L107.98 30.49L107.84 30.36Q107.87 28.52 108.59 27.41L108.61 27.43L108.70 27.52Q109.94 25.94 112.91 25.94L112.94 25.98L114.48 25.95L114.46 25.93Q116.60 26.02 118.12 26.32L118.21 26.41L118.08 26.27Q120.28 26.88 121.27 28.09L121.26 28.09L121.19 28.02Q121.84 29.13 121.92 31.22L121.95 31.25L121.87 31.18Q121.84 32.28 121.88 34.45L121.87 34.45L121.85 34.43Q119.03 34.50 116.25 34.50L116.19 34.44L110.67 34.51L110.66 34.50Q110.87 38.98 114.94 38.75L114.84 38.65L114.95 38.75Q118.58 38.43 119.80 36.60L119.87 36.67L119.83 36.63Q120.73 37.19 122.33 38.37L122.27 38.31L122.40 38.44Q120.97 40.78 116.82 41.04L116.93 41.16L116.86 41.08Q116.14 41.13 114.77 41.21ZM116.98 43.45L117.13 43.60L117.13 43.60Q118.22 43.55 119.44 43.62L119.44 43.63L119.44 43.63Q124.36 43.75 125.27 40.97L125.26 40.96L125.24 40.94Q123.55 39.63 122.45 38.87L122.64 39.06L122.50 38.93Q122.64 38.49 122.83 38.26L122.91 38.34L122.91 38.34Q122.13 37.83 120.76 36.88L120.73 36.85L120.85 36.97Q121.87 36.96 123.93 37.27L123.96 37.29L123.93 37.27Q123.76 35.92 123.69 35.23L123.60 35.15L123.55 33.31L123.46 33.22Q123.44 30.99 122.79 29.50L122.82 29.54L122.66 29.37Q122.57 29.21 122.00 28.60L121.91 28.51L121.82 28.42Q121.77 28.22 121.54 27.65L121.57 27.67L121.51 27.62Q119.62 25.57 114.55 25.57L114.53 25.55L112.90 25.59L112.84 25.54Q109.63 25.56 108.18 27.04L108.23 27.08L108.14 27.00Q107.45 28.09 107.48 30.15L107.62 30.29L107.53 30.19Q107.56 31.14 107.68 33.39L107.79 33.50L107.81 33.52Q107.88 35.11 107.99 37.17L107.87 37.04L107.84 37.01Q108.13 39.28 109.00 40.35L109.17 40.52L109.15 40.50Q109.19 40.53 109.38 40.65L109.36 40.63L109.73 41.34L109.73 41.34Q110.38 43.06 116.97 43.44ZM114.90 38.29L114.84 38.23L114.94 38.32Q113.85 38.50 112.94 38.04L112.93 38.03L112.76 37.87Q112.82 37.58 112.63 36.89L112.55 36.82L112.58 36.84Q114.35 36.83 115.95 36.83L115.92 36.79L115.84 36.71Q117.54 36.74 119.21 36.85L119.28 36.92L119.14 36.78Q117.96 38.23 114.95 38.34ZM116.49 30.89L116.64 31.05L116.57 30.98Q117.15 30.94 118.48 31.33L118.54 31.38L118.61 31.64L118.70 31.92L118.76 31.99Q117.43 32.14 116.52 32.10L116.46 32.05L116.40 31.99Q114.16 31.99 114.12 31.99L114.18 32.05L114.21 32.08Q114.85 31.04 116.52 30.92Z"/><path fill="#222" d="M57.10 41.34L57.20 41.45L57.17 41.41Q54.25 41.54 52.99 41.00L52.89 40.91L53.05 41.07Q51.12 40.28 51.20 37.80L51.06 37.66L51.08 37.68Q51.20 34.27 51.20 34.84L51.33 34.97L51.19 34.83Q51.30 29.60 48.44 24.77L48.49 24.82L48.42 24.75Q50.33 25.63 52.31 26.01L52.37 26.07L52.31 26.01Q54.13 30.72 54.02 35.22L53.95 35.15L54.03 35.23Q53.91 36.75 54.75 37.96L54.56 37.77L54.58 37.79Q55.59 39.23 57.12 39.04L57.18 39.10L57.49 38.92L57.56 38.99Q58.83 38.85 59.65 38.09L59.71 38.14L59.56 38.00Q60.40 37.26 60.40 36.31L60.39 36.29L60.46 36.37Q60.42 36.10 60.38 35.90L60.31 35.84L60.41 35.94Q60.23 30.58 61.37 26.24L61.47 26.34L61.51 26.37Q62.42 26.18 63.41 25.95L63.52 26.06L65.43 25.46L65.42 25.45Q63.04 30.65 63.34 36.21L63.19 36.05L63.28 36.14Q63.39 39.15 61.68 40.29L61.67 40.28L61.71 40.32Q60.36 41.14 57.05 41.30ZM59.54 43.86L59.44 43.76L59.36 43.68Q62.92 43.93 64.74 43.16L64.75 43.17L64.65 43.07Q65.69 42.44 65.69 41.03L65.66 41.00L65.73 41.06Q65.59 40.01 65.32 38.45L65.34 38.46L65.29 38.42Q64.92 35.39 65.30 32.38L65.34 32.42L65.40 32.47Q65.76 29.29 67.17 26.55L67.16 26.55L67.02 26.40Q66.44 26.77 65.10 27.19L65.07 27.16L65.19 27.28Q65.37 26.62 65.68 26.05L65.56 25.93L66.19 24.85L66.29 24.95Q64.28 25.53 61.12 26.03L61.03 25.93L61.22 26.12Q59.99 30.91 60.15 36.02L60.11 35.98L60.02 35.89Q60.16 38.05 57.49 38.54L57.54 38.58L57.19 38.69L57.06 38.72L56.12 38.57L55.92 38.38Q55.97 37.62 56.01 37.13L55.93 37.06L55.97 37.10Q56.08 32.48 55.39 28.07L55.40 28.08L54.39 27.98L54.47 28.06Q53.86 27.94 53.33 27.82L53.33 27.83L53.31 27.81Q53.01 26.48 52.74 25.72L52.69 25.67L52.68 25.66Q49.95 25.29 47.71 24.00L47.65 23.94L47.78 24.07Q49.80 27.46 50.52 30.85L50.60 30.92L50.60 30.92Q50.95 32.99 50.80 36.49L50.97 36.66L50.88 36.57Q50.96 36.77 50.89 37.87L50.83 37.81L50.93 37.92Q50.74 40.23 52.11 41.18L52.14 41.22L52.15 41.22Q52.47 43.41 59.47 43.79Z"/><path fill="#222" d="M79.20 15.82L79.32 15.93L79.26 15.88Q81.22 20.81 81.79 25.98L81.69 25.88L81.75 25.95Q85.33 21.68 91.23 16.85L91.27 16.89L91.41 17.03Q94.59 16.71 97.22 15.91L97.14 15.83L90.58 21.45L90.68 21.55Q87.15 24.38 84.30 27.23L84.28 27.21L84.29 27.23Q92.34 36.46 97.40 41.18L97.36 41.13L97.23 41.01Q94.34 40.28 92.02 40.13L91.83 39.94L91.99 40.11Q86.12 34.62 81.82 28.79L81.85 28.83L81.93 28.90Q81.93 35.42 80.07 40.75L80.12 40.80L80.00 40.68Q79.91 40.86 79.42 41.05L79.31 40.94L79.33 41.15L79.33 41.15Q79.18 41.22 76.62 42.14L76.56 42.07L76.53 42.04Q79.60 35.59 79.25 28.13L79.16 28.04L79.11 27.99Q78.93 20.80 75.39 14.29L75.24 14.14L75.79 14.43L76.21 14.73L76.34 14.82L76.22 14.70Q77.04 15.18 79.25 15.86ZM79.61 15.66L79.61 15.65L79.60 15.65Q77.32 15.09 74.70 13.56L74.61 13.48L74.54 13.40Q78.85 20.72 78.85 29.67L78.85 29.67L78.87 29.69Q78.98 36.80 76.01 42.85L75.90 42.75L77.85 41.81L78.05 42.00Q77.49 42.85 76.80 44.14L76.92 44.26L76.92 44.26Q79.10 43.39 81.04 42.97L81.01 42.95L81.11 42.81L81.20 42.90Q81.42 42.82 81.99 42.67L82.02 42.70L81.90 42.58Q83.56 36.67 83.68 31.87L83.77 31.96L83.78 31.97Q85.79 34.40 87.62 36.27L87.63 36.28L87.62 36.27Q88.89 37.47 91.90 40.44L91.75 40.29L91.79 40.32L91.94 40.47Q92.89 41.23 94.75 42.83L94.69 42.77L94.68 42.75Q98.60 43.52 102.07 45.23L102.14 45.30L102.09 45.26Q92.82 36.71 86.57 29.28L86.50 29.21L86.46 29.17Q91.05 25.08 99.81 16.48L99.78 16.45L99.79 16.46Q97.19 17.55 95.17 17.93L95.07 17.83L95.14 17.90Q96.28 16.83 98.60 14.82L98.78 14.99L98.63 14.84Q94.68 16.41 91.33 16.60L91.28 16.55L91.26 16.53Q88.28 18.70 83.41 23.38L83.45 23.42L83.42 23.39Q83.07 20.83 82.50 18.28L82.47 18.25L82.45 18.23Q81.37 18.18 80.38 17.83L80.34 17.80L80.33 17.79Q80.03 16.96 79.46 15.51Z"/></svg>